<svg xmlns="http://www.w3.org/2000/svg" xmlns:xlink="http://www.w3.org/1999/xlink" contentStyleType="text/css" data-diagram-type="ACTIVITY" height="932px" preserveAspectRatio="none" style="width:448px;height:932px;background:#FFFFFF;" version="1.1" viewBox="0 0 448 932" width="448px" zoomAndPan="magnify"><defs/><g><text fill="#FF0000" font-family="sans-serif" font-size="10" lengthAdjust="spacing" textLength="182.7148" x="249.4102" y="19.668">Yui Semba - &#12489;&#12461;&#12517;&#12513;&#12531;&#12488;&#31649;&#29702;&#12471;&#12473;&#12486;&#12512;</text><ellipse cx="177.6853" cy="32.7773" fill="#222222" rx="10" ry="10" style="stroke:#222222;stroke-width:1;"/><rect fill="#F1F1F1" height="34.1328" rx="12.5" ry="12.5" style="stroke:#181818;stroke-width:0.5;" width="184.707" x="85.3318" y="62.7773"/><text fill="#000000" font-family="sans-serif" font-size="12" lengthAdjust="spacing" textLength="164.707" x="95.3318" y="84.3789">ClickServlet.handleRequest()</text><rect fill="#F1F1F1" height="34.1328" rx="12.5" ry="12.5" style="stroke:#181818;stroke-width:0.5;" width="75.5234" x="139.9236" y="116.9102"/><text fill="#000000" font-family="sans-serif" font-size="12" lengthAdjust="spacing" textLength="55.5234" x="149.9236" y="138.5117">new page</text><rect fill="#F1F1F1" height="34.1328" rx="12.5" ry="12.5" style="stroke:#181818;stroke-width:0.5;" width="92.709" x="131.3308" y="219.5205"/><text fill="#000000" font-family="sans-serif" font-size="12" lengthAdjust="spacing" textLength="72.709" x="141.3308" y="241.1221">Page.onInit()</text><rect fill="#F1F1F1" height="34.1328" rx="12.5" ry="12.5" style="stroke:#181818;stroke-width:0.5;" width="115.0977" x="120.1365" y="322.1309"/><text fill="#000000" font-family="sans-serif" font-size="12" lengthAdjust="spacing" textLength="95.0977" x="130.1365" y="343.7324">Process controls</text><polygon fill="#F1F1F1" points="121.4661,376.2637,233.9045,376.2637,245.9045,388.2637,233.9045,400.2637,121.4661,400.2637,109.4661,388.2637,121.4661,376.2637" style="stroke:#181818;stroke-width:0.5;"/><text fill="#000000" font-family="sans-serif" font-size="11" lengthAdjust="spacing" textLength="112.4385" x="121.4661" y="392.4209">continue processing?</text><text fill="#000000" font-family="sans-serif" font-size="11" lengthAdjust="spacing" textLength="13.5835" x="245.9045" y="385.9434">no</text><ellipse cx="281.488" cy="388.2637" fill="none" rx="11" ry="11" style="stroke:#222222;stroke-width:1;"/><ellipse cx="281.488" cy="388.2637" fill="#222222" rx="6" ry="6" style="stroke:#222222;stroke-width:1;"/><polygon fill="#F1F1F1" points="159.6921,444.6973,195.6785,444.6973,207.6785,456.6973,195.6785,468.6973,159.6921,468.6973,147.6921,456.6973,159.6921,444.6973" style="stroke:#181818;stroke-width:0.5;"/><text fill="#000000" font-family="sans-serif" font-size="11" lengthAdjust="spacing" textLength="35.9863" x="159.6921" y="460.8545">isPost?</text><text fill="#000000" font-family="sans-serif" font-size="11" lengthAdjust="spacing" textLength="17.4829" x="130.2092" y="454.377">yes</text><text fill="#000000" font-family="sans-serif" font-size="11" lengthAdjust="spacing" textLength="13.5835" x="207.6785" y="454.377">no</text><rect fill="#F1F1F1" height="34.1328" rx="12.5" ry="12.5" style="stroke:#181818;stroke-width:0.5;" width="98.457" x="70.4192" y="478.6973"/><text fill="#000000" font-family="sans-serif" font-size="12" lengthAdjust="spacing" textLength="78.457" x="80.4192" y="500.2988">Page.onPost()</text><rect fill="#F1F1F1" height="34.1328" rx="12.5" ry="12.5" style="stroke:#181818;stroke-width:0.5;" width="93.6934" x="188.8762" y="478.6973"/><text fill="#000000" font-family="sans-serif" font-size="12" lengthAdjust="spacing" textLength="73.6934" x="198.8762" y="500.2988">Page.onGet()</text><polygon fill="#F1F1F1" points="177.6853,518.8301,189.6853,530.8301,177.6853,542.8301,165.6853,530.8301,177.6853,518.8301" style="stroke:#181818;stroke-width:0.5;"/><rect fill="#F1F1F1" height="34.1328" rx="12.5" ry="12.5" style="stroke:#181818;stroke-width:0.5;" width="114.7168" x="120.3269" y="562.8301"/><text fill="#000000" font-family="sans-serif" font-size="12" lengthAdjust="spacing" textLength="94.7168" x="130.3269" y="584.4316">Page.onRender()</text><polygon fill="#F1F1F1" points="149.4065,273.6533,205.9641,273.6533,217.9641,285.6533,205.9641,297.6533,149.4065,297.6533,137.4065,285.6533,149.4065,273.6533" style="stroke:#181818;stroke-width:0.5;"/><text fill="#000000" font-family="sans-serif" font-size="11" lengthAdjust="spacing" textLength="13.5835" x="181.6853" y="308.2881">no</text><text fill="#000000" font-family="sans-serif" font-size="11" lengthAdjust="spacing" textLength="56.5576" x="149.4065" y="289.8105">isForward?</text><polygon fill="#F1F1F1" points="177.6853,616.9629,189.6853,628.9629,177.6853,640.9629,165.6853,628.9629,177.6853,616.9629" style="stroke:#181818;stroke-width:0.5;"/><polygon fill="#F1F1F1" points="119.2397,171.043,236.1309,171.043,248.1309,183.043,236.1309,195.043,119.2397,195.043,107.2397,183.043,119.2397,171.043" style="stroke:#181818;stroke-width:0.5;"/><text fill="#000000" font-family="sans-serif" font-size="11" lengthAdjust="spacing" textLength="21.5703" x="181.6853" y="205.6777">true</text><text fill="#000000" font-family="sans-serif" font-size="11" lengthAdjust="spacing" textLength="116.8911" x="119.2397" y="187.2002">Page.onSecurityCheck</text><text fill="#000000" font-family="sans-serif" font-size="11" lengthAdjust="spacing" textLength="25.0347" x="248.1309" y="180.7227">false</text><polygon fill="#F1F1F1" points="177.6853,660.9629,189.6853,672.9629,177.6853,684.9629,165.6853,672.9629,177.6853,660.9629" style="stroke:#181818;stroke-width:0.5;"/><polygon fill="#F1F1F1" points="146.2295,704.9629,209.1411,704.9629,221.1411,716.9629,209.1411,728.9629,146.2295,728.9629,134.2295,716.9629,146.2295,704.9629" style="stroke:#181818;stroke-width:0.5;"/><text fill="#000000" font-family="sans-serif" font-size="11" lengthAdjust="spacing" textLength="62.9116" x="146.2295" y="721.1201">do redirect?</text><text fill="#000000" font-family="sans-serif" font-size="11" lengthAdjust="spacing" textLength="17.4829" x="116.7466" y="714.6426">yes</text><rect fill="#F1F1F1" height="34.1328" rx="12.5" ry="12.5" style="stroke:#181818;stroke-width:0.5;" width="113.5449" x="11" y="738.9629"/><text fill="#000000" font-family="sans-serif" font-size="12" lengthAdjust="spacing" textLength="93.5449" x="21" y="760.5645">redirect process</text><polygon fill="#F1F1F1" points="256.0591,738.9629,319.1372,738.9629,331.1372,750.9629,319.1372,762.9629,256.0591,762.9629,244.0591,750.9629,256.0591,738.9629" style="stroke:#181818;stroke-width:0.5;"/><text fill="#000000" font-family="sans-serif" font-size="11" lengthAdjust="spacing" textLength="63.0781" x="256.0591" y="755.1201">do forward?</text><text fill="#000000" font-family="sans-serif" font-size="11" lengthAdjust="spacing" textLength="17.4829" x="226.5762" y="748.6426">yes</text><text fill="#000000" font-family="sans-serif" font-size="11" lengthAdjust="spacing" textLength="13.5835" x="331.1372" y="748.6426">no</text><rect fill="#F1F1F1" height="34.1328" rx="12.5" ry="12.5" style="stroke:#181818;stroke-width:0.5;" width="114.7344" x="154.5449" y="772.9629"/><text fill="#000000" font-family="sans-serif" font-size="12" lengthAdjust="spacing" textLength="94.7344" x="164.5449" y="794.5645">Forward request</text><rect fill="#F1F1F1" height="34.1328" rx="12.5" ry="12.5" style="stroke:#181818;stroke-width:0.5;" width="148.0098" x="289.2793" y="772.9629"/><text fill="#000000" font-family="sans-serif" font-size="12" lengthAdjust="spacing" textLength="128.0098" x="299.2793" y="794.5645">Render page template</text><polygon fill="#F1F1F1" points="287.5981,813.0957,299.5981,825.0957,287.5981,837.0957,275.5981,825.0957,287.5981,813.0957" style="stroke:#181818;stroke-width:0.5;"/><polygon fill="#F1F1F1" points="177.6853,843.0957,189.6853,855.0957,177.6853,867.0957,165.6853,855.0957,177.6853,843.0957" style="stroke:#181818;stroke-width:0.5;"/><ellipse cx="177.6853" cy="898.0957" fill="none" rx="11" ry="11" style="stroke:#222222;stroke-width:1;"/><ellipse cx="177.6853" cy="898.0957" fill="#222222" rx="6" ry="6" style="stroke:#222222;stroke-width:1;"/><line style="stroke:#181818;stroke-width:1;" x1="177.6853" x2="177.6853" y1="42.7773" y2="62.7773"/><polygon fill="#181818" points="173.6853,52.7773,177.6853,62.7773,181.6853,52.7773,177.6853,56.7773" style="stroke:#181818;stroke-width:1;"/><line style="stroke:#181818;stroke-width:1;" x1="177.6853" x2="177.6853" y1="96.9102" y2="116.9102"/><polygon fill="#181818" points="173.6853,106.9102,177.6853,116.9102,181.6853,106.9102,177.6853,110.9102" style="stroke:#181818;stroke-width:1;"/><line style="stroke:#181818;stroke-width:1;" x1="177.6853" x2="177.6853" y1="400.2637" y2="444.6973"/><polygon fill="#181818" points="173.6853,434.6973,177.6853,444.6973,181.6853,434.6973,177.6853,438.6973" style="stroke:#181818;stroke-width:1;"/><line style="stroke:#181818;stroke-width:1;" x1="245.9045" x2="270.488" y1="388.2637" y2="388.2637"/><polygon fill="#181818" points="260.488,384.2637,270.488,388.2637,260.488,392.2637,264.488,388.2637" style="stroke:#181818;stroke-width:1;"/><line style="stroke:#181818;stroke-width:1;" x1="177.6853" x2="177.6853" y1="356.2637" y2="376.2637"/><polygon fill="#181818" points="173.6853,366.2637,177.6853,376.2637,181.6853,366.2637,177.6853,370.2637" style="stroke:#181818;stroke-width:1;"/><line style="stroke:#181818;stroke-width:1;" x1="147.6921" x2="119.6477" y1="456.6973" y2="456.6973"/><line style="stroke:#181818;stroke-width:1;" x1="119.6477" x2="119.6477" y1="456.6973" y2="478.6973"/><polygon fill="#181818" points="115.6477,468.6973,119.6477,478.6973,123.6477,468.6973,119.6477,472.6973" style="stroke:#181818;stroke-width:1;"/><line style="stroke:#181818;stroke-width:1;" x1="207.6785" x2="235.7229" y1="456.6973" y2="456.6973"/><line style="stroke:#181818;stroke-width:1;" x1="235.7229" x2="235.7229" y1="456.6973" y2="478.6973"/><polygon fill="#181818" points="231.7229,468.6973,235.7229,478.6973,239.7229,468.6973,235.7229,472.6973" style="stroke:#181818;stroke-width:1;"/><line style="stroke:#181818;stroke-width:1;" x1="119.6477" x2="119.6477" y1="512.8301" y2="530.8301"/><line style="stroke:#181818;stroke-width:1;" x1="119.6477" x2="165.6853" y1="530.8301" y2="530.8301"/><polygon fill="#181818" points="155.6853,526.8301,165.6853,530.8301,155.6853,534.8301,159.6853,530.8301" style="stroke:#181818;stroke-width:1;"/><line style="stroke:#181818;stroke-width:1;" x1="235.7229" x2="235.7229" y1="512.8301" y2="530.8301"/><line style="stroke:#181818;stroke-width:1;" x1="235.7229" x2="189.6853" y1="530.8301" y2="530.8301"/><polygon fill="#181818" points="199.6853,526.8301,189.6853,530.8301,199.6853,534.8301,195.6853,530.8301" style="stroke:#181818;stroke-width:1;"/><line style="stroke:#181818;stroke-width:1;" x1="177.6853" x2="177.6853" y1="542.8301" y2="562.8301"/><polygon fill="#181818" points="173.6853,552.8301,177.6853,562.8301,181.6853,552.8301,177.6853,556.8301" style="stroke:#181818;stroke-width:1;"/><line style="stroke:#181818;stroke-width:1;" x1="177.6853" x2="177.6853" y1="297.6533" y2="322.1309"/><polygon fill="#181818" points="173.6853,312.1309,177.6853,322.1309,181.6853,312.1309,177.6853,316.1309" style="stroke:#181818;stroke-width:1;"/><line style="stroke:#181818;stroke-width:1;" x1="217.9641" x2="314.488" y1="285.6533" y2="285.6533"/><polygon fill="#181818" points="310.488,430.2637,314.488,440.2637,318.488,430.2637,314.488,434.2637" style="stroke:#181818;stroke-width:1;"/><line style="stroke:#181818;stroke-width:1;" x1="314.488" x2="314.488" y1="285.6533" y2="628.9629"/><line style="stroke:#181818;stroke-width:1;" x1="314.488" x2="189.6853" y1="628.9629" y2="628.9629"/><polygon fill="#181818" points="199.6853,624.9629,189.6853,628.9629,199.6853,632.9629,195.6853,628.9629" style="stroke:#181818;stroke-width:1;"/><line style="stroke:#181818;stroke-width:1;" x1="177.6853" x2="177.6853" y1="596.9629" y2="616.9629"/><polygon fill="#181818" points="173.6853,606.9629,177.6853,616.9629,181.6853,606.9629,177.6853,610.9629" style="stroke:#181818;stroke-width:1;"/><line style="stroke:#181818;stroke-width:1;" x1="177.6853" x2="177.6853" y1="253.6533" y2="273.6533"/><polygon fill="#181818" points="173.6853,263.6533,177.6853,273.6533,181.6853,263.6533,177.6853,267.6533" style="stroke:#181818;stroke-width:1;"/><line style="stroke:#181818;stroke-width:1;" x1="177.6853" x2="177.6853" y1="195.043" y2="219.5205"/><polygon fill="#181818" points="173.6853,209.5205,177.6853,219.5205,181.6853,209.5205,177.6853,213.5205" style="stroke:#181818;stroke-width:1;"/><line style="stroke:#181818;stroke-width:1;" x1="248.1309" x2="336.488" y1="183.043" y2="183.043"/><polygon fill="#181818" points="332.488,410.2637,336.488,420.2637,340.488,410.2637,336.488,414.2637" style="stroke:#181818;stroke-width:1;"/><line style="stroke:#181818;stroke-width:1;" x1="336.488" x2="336.488" y1="183.043" y2="672.9629"/><line style="stroke:#181818;stroke-width:1;" x1="336.488" x2="189.6853" y1="672.9629" y2="672.9629"/><polygon fill="#181818" points="199.6853,668.9629,189.6853,672.9629,199.6853,676.9629,195.6853,672.9629" style="stroke:#181818;stroke-width:1;"/><line style="stroke:#181818;stroke-width:1;" x1="177.6853" x2="177.6853" y1="640.9629" y2="660.9629"/><polygon fill="#181818" points="173.6853,650.9629,177.6853,660.9629,181.6853,650.9629,177.6853,654.9629" style="stroke:#181818;stroke-width:1;"/><line style="stroke:#181818;stroke-width:1;" x1="177.6853" x2="177.6853" y1="151.043" y2="171.043"/><polygon fill="#181818" points="173.6853,161.043,177.6853,171.043,181.6853,161.043,177.6853,165.043" style="stroke:#181818;stroke-width:1;"/><line style="stroke:#181818;stroke-width:1;" x1="244.0591" x2="211.9121" y1="750.9629" y2="750.9629"/><line style="stroke:#181818;stroke-width:1;" x1="211.9121" x2="211.9121" y1="750.9629" y2="772.9629"/><polygon fill="#181818" points="207.9121,762.9629,211.9121,772.9629,215.9121,762.9629,211.9121,766.9629" style="stroke:#181818;stroke-width:1;"/><line style="stroke:#181818;stroke-width:1;" x1="331.1372" x2="363.2842" y1="750.9629" y2="750.9629"/><line style="stroke:#181818;stroke-width:1;" x1="363.2842" x2="363.2842" y1="750.9629" y2="772.9629"/><polygon fill="#181818" points="359.2842,762.9629,363.2842,772.9629,367.2842,762.9629,363.2842,766.9629" style="stroke:#181818;stroke-width:1;"/><line style="stroke:#181818;stroke-width:1;" x1="211.9121" x2="211.9121" y1="807.0957" y2="825.0957"/><line style="stroke:#181818;stroke-width:1;" x1="211.9121" x2="275.5981" y1="825.0957" y2="825.0957"/><polygon fill="#181818" points="265.5981,821.0957,275.5981,825.0957,265.5981,829.0957,269.5981,825.0957" style="stroke:#181818;stroke-width:1;"/><line style="stroke:#181818;stroke-width:1;" x1="363.2842" x2="363.2842" y1="807.0957" y2="825.0957"/><line style="stroke:#181818;stroke-width:1;" x1="363.2842" x2="299.5981" y1="825.0957" y2="825.0957"/><polygon fill="#181818" points="309.5981,821.0957,299.5981,825.0957,309.5981,829.0957,305.5981,825.0957" style="stroke:#181818;stroke-width:1;"/><line style="stroke:#181818;stroke-width:1;" x1="134.2295" x2="67.7725" y1="716.9629" y2="716.9629"/><line style="stroke:#181818;stroke-width:1;" x1="67.7725" x2="67.7725" y1="716.9629" y2="738.9629"/><polygon fill="#181818" points="63.7725,728.9629,67.7725,738.9629,71.7725,728.9629,67.7725,732.9629" style="stroke:#181818;stroke-width:1;"/><line style="stroke:#181818;stroke-width:1;" x1="221.1411" x2="287.5981" y1="716.9629" y2="716.9629"/><line style="stroke:#181818;stroke-width:1;" x1="287.5981" x2="287.5981" y1="716.9629" y2="738.9629"/><polygon fill="#181818" points="283.5981,728.9629,287.5981,738.9629,291.5981,728.9629,287.5981,732.9629" style="stroke:#181818;stroke-width:1;"/><line style="stroke:#181818;stroke-width:1;" x1="67.7725" x2="67.7725" y1="773.0957" y2="855.0957"/><line style="stroke:#181818;stroke-width:1;" x1="67.7725" x2="165.6853" y1="855.0957" y2="855.0957"/><polygon fill="#181818" points="155.6853,851.0957,165.6853,855.0957,155.6853,859.0957,159.6853,855.0957" style="stroke:#181818;stroke-width:1;"/><line style="stroke:#181818;stroke-width:1;" x1="287.5981" x2="287.5981" y1="837.0957" y2="855.0957"/><line style="stroke:#181818;stroke-width:1;" x1="287.5981" x2="189.6853" y1="855.0957" y2="855.0957"/><polygon fill="#181818" points="199.6853,851.0957,189.6853,855.0957,199.6853,859.0957,195.6853,855.0957" style="stroke:#181818;stroke-width:1;"/><line style="stroke:#181818;stroke-width:1;" x1="177.6853" x2="177.6853" y1="684.9629" y2="704.9629"/><polygon fill="#181818" points="173.6853,694.9629,177.6853,704.9629,181.6853,694.9629,177.6853,698.9629" style="stroke:#181818;stroke-width:1;"/><line style="stroke:#181818;stroke-width:1;" x1="177.6853" x2="177.6853" y1="867.0957" y2="887.0957"/><polygon fill="#181818" points="173.6853,877.0957,177.6853,887.0957,181.6853,877.0957,177.6853,881.0957" style="stroke:#181818;stroke-width:1;"/><text fill="#888888" font-family="sans-serif" font-size="10" font-weight="bold" lengthAdjust="spacing" textLength="223.9795" x="211.3096" y="917.7637">Copyright &#169; Yui Semba. All rights reserved.</text><!--SRC=[dL4xRiCm3Drr2dQAFTJUxQ53W1RTWkG4Wap7GXJ9bQW6ldtriLAtcLej8lW-U2JR7Jp_wS6kPKzI2-K7XAPf5L-CfsRsLyNQ_vWnHzmIw_PAYii9xQT2QYQk1uL7_F3egAfxrccymSpFs3CvGdK8LMFq2OMtafRzXE9I0qseeIBhiMO0tKfwrp9P04IbTA_6thWTNWfVcyYEV6i4EWV2QB96kJwreoXsfFO8SwP8VNwG0pWoSofH3t9aTxLq1-FeBbZG5KM96F4SCOYLmwrhuRpXDoNvRy5ZQA7DU4QppSZ3LxCrK0mp6B0uI8lY8L5NW39cdrpMnGNX-6jpzqcwTQV1EbqinVWnHvSJfXC2uNLMd72JDWTC6_m2]--></g></svg>