<svg xmlns="http://www.w3.org/2000/svg" xmlns:xlink="http://www.w3.org/1999/xlink" contentStyleType="text/css" data-diagram-type="CLASS" height="391px" preserveAspectRatio="none" style="width:261px;height:391px;background:#FFFFFF;" version="1.1" viewBox="0 0 261 391" width="261px" zoomAndPan="magnify"><defs/><g><g class="entity" data-entity="London" data-source-line="2" data-uid="ent0002" id="entity_London"><rect fill="#F1F1F1" height="36.4883" rx="2.5" ry="2.5" style="stroke:#181818;stroke-width:0.5;" width="64.8525" x="190.33" y="129.74"/><text fill="#000000" font-family="sans-serif" font-size="14" lengthAdjust="spacing" textLength="50.8525" x="197.33" y="145.2752">London</text><line style="stroke:#181818;stroke-width:0.5;" x1="191.33" x2="254.1825" y1="150.2283" y2="150.2283"/></g><g class="entity" data-entity="Washington" data-source-line="3" data-uid="ent0003" id="entity_Washington"><rect fill="#F1F1F1" height="36.4883" rx="2.5" ry="2.5" style="stroke:#181818;stroke-width:0.5;" width="93.5225" x="7" y="252.48"/><text fill="#000000" font-family="sans-serif" font-size="14" lengthAdjust="spacing" textLength="79.5225" x="14" y="268.0152">Washington</text><line style="stroke:#181818;stroke-width:0.5;" x1="8" x2="99.5225" y1="272.9683" y2="272.9683"/></g><g class="entity" data-entity="Berlin" data-source-line="4" data-uid="ent0004" id="entity_Berlin"><rect fill="#F1F1F1" height="36.4883" rx="2.5" ry="2.5" style="stroke:#181818;stroke-width:0.5;" width="52.3633" x="127.58" y="348.97"/><text fill="#000000" font-family="sans-serif" font-size="14" lengthAdjust="spacing" textLength="38.3633" x="134.58" y="364.5052">Berlin</text><line style="stroke:#181818;stroke-width:0.5;" x1="128.58" x2="178.9433" y1="369.4583" y2="369.4583"/></g><g class="entity" data-entity="NewYork" data-source-line="5" data-uid="ent0005" id="entity_NewYork"><rect fill="#F1F1F1" height="36.4883" rx="2.5" ry="2.5" style="stroke:#181818;stroke-width:0.5;" width="74.1631" x="66.68" y="7"/><text fill="#000000" font-family="sans-serif" font-size="14" lengthAdjust="spacing" textLength="60.1631" x="73.68" y="22.5352">NewYork</text><line style="stroke:#181818;stroke-width:0.5;" x1="67.68" x2="139.8431" y1="27.4883" y2="27.4883"/></g><g class="entity" data-entity="CapitalCity" data-source-line="7" data-uid="ent0006" id="entity_CapitalCity"><rect fill="#F1F1F1" height="81.9531" rx="2.5" ry="2.5" style="stroke:#181818;stroke-width:0.5;" width="87.5752" x="60.26" y="107.48"/><text fill="#000000" font-family="sans-serif" font-size="14" lengthAdjust="spacing" textLength="73.5752" x="67.26" y="123.0152">CapitalCity</text><line style="stroke:#181818;stroke-width:1;" x1="60.26" x2="147.8352" y1="127.9683" y2="127.9683"/><text fill="#000000" font-family="sans-serif" font-size="14" lengthAdjust="spacing" textLength="18.8398" x="94.6277" y="143.5034">UK</text><line style="stroke:#181818;stroke-width:1;" x1="60.26" x2="147.8352" y1="148.4566" y2="148.4566"/><text fill="#000000" font-family="sans-serif" font-size="14" lengthAdjust="spacing" textLength="26.8994" x="90.5979" y="163.9917">USA</text><line style="stroke:#181818;stroke-width:1;" x1="60.26" x2="147.8352" y1="168.9448" y2="168.9448"/><text fill="#000000" font-family="sans-serif" font-size="14" lengthAdjust="spacing" textLength="60.4502" x="73.8225" y="184.48">Germany</text></g><!--link CapitalCity to London--><g class="link" data-entity-1="CapitalCity" data-entity-2="London" data-source-line="8" data-uid="lnk7" id="link_CapitalCity_London"><path d="M148.26,137.48 C162.05,144.8 171.3502,149.3914 184.2602,152.7214" fill="none" id="CapitalCity-to-London" style="stroke:#181818;stroke-width:1;"/><polygon fill="#181818" points="190.07,154.22,182.3543,148.0989,185.2285,152.9712,180.3562,155.8453,190.07,154.22" style="stroke:#181818;stroke-width:1;"/></g><!--link CapitalCity to Washington--><g class="link" data-entity-1="CapitalCity" data-entity-2="Washington" data-source-line="8" data-uid="lnk8" id="link_CapitalCity_Washington"><path d="M59.26,157.48 C21.8,157.48 35.6019,214.9085 45.7619,246.4785" fill="none" id="CapitalCity-to-Washington" style="stroke:#181818;stroke-width:1;"/><polygon fill="#181818" points="47.6,252.19,48.6505,242.3973,46.0682,247.4304,41.0352,244.8481,47.6,252.19" style="stroke:#181818;stroke-width:1;"/></g><!--link CapitalCity to Berlin--><g class="link" data-entity-1="CapitalCity" data-entity-2="Berlin" data-source-line="8" data-uid="lnk9" id="link_CapitalCity_Berlin"><path d="M148.26,178.48 C182.09,178.48 165.6778,295.9019 157.8778,342.6319" fill="none" id="CapitalCity-to-Berlin" style="stroke:#181818;stroke-width:1;"/><polygon fill="#181818" points="156.89,348.55,162.3172,340.3314,157.7132,343.6182,154.4263,339.0143,156.89,348.55" style="stroke:#181818;stroke-width:1;"/></g><!--link NewYork to CapitalCity--><g class="link" data-entity-1="NewYork" data-entity-2="CapitalCity" data-source-line="13" data-uid="lnk10" id="link_NewYork_CapitalCity"><path codeLine="13" d="M117.32,43.94 C143.76,79.76 201.66,157.48 154.26,157.48" fill="none" id="NewYork-to-CapitalCity" style="stroke:#181818;stroke-width:1;"/><polygon fill="#181818" points="148.26,157.48,157.26,161.48,153.26,157.48,157.26,153.48,148.26,157.48" style="stroke:#181818;stroke-width:1;"/></g><!--SRC=[oq_AIaqkKV39pql9p-FAX_324uipClFIIn0YJgb5EPbmdbzgUMH-KJONLsvYWO9pOa5cIMAESsP9fK8rbqAejuAMhXtCG8NGO4SW7oY0PAQ2UsfHRc9U9KW2A0CrkvQB2sgk0aWKoLWhAw0f0000]--></g></svg>