<svg xmlns="http://www.w3.org/2000/svg" xmlns:xlink="http://www.w3.org/1999/xlink" contentStyleType="text/css" data-diagram-type="DESCRIPTION" height="519px" preserveAspectRatio="none" style="width:680px;height:519px;background:#FFFFFF;" version="1.1" viewBox="0 0 680 519" width="680px" zoomAndPan="magnify"><defs/><g><!--entity actor--><g class="entity" data-entity="actor" data-source-line="2" data-uid="ent0002" id="entity_actor"><ellipse cx="55.4034" cy="14" fill="#F1F1F1" rx="8" ry="8" style="stroke:#181818;stroke-width:0.5;"/><path d="M55.4034,22 L55.4034,49 M42.4034,30 L68.4034,30 M55.4034,49 L42.4034,64 M55.4034,49 L68.4034,64" fill="none" style="stroke:#181818;stroke-width:0.5;"/><text fill="#000000" font-family="sans-serif" font-size="14" lengthAdjust="spacing" textLength="34.4668" x="38.17" y="79.0352">actor</text></g><!--entity actor/--><g class="entity" data-entity="actor/" data-source-line="3" data-uid="ent0003" id="entity_actor/"><ellipse cx="128.4043" cy="14" fill="#F1F1F1" rx="8" ry="8" style="stroke:#181818;stroke-width:0.5;"/><line style="stroke:#181818;stroke-width:0.5;" x1="126.4605" x2="136.1645" y1="21.7603" y2="12.0562"/><path d="M128.4043,22 L128.4043,49 M115.4043,30 L141.4043,30 M128.4043,49 L115.4043,64 M128.4043,49 L141.4043,64" fill="none" style="stroke:#181818;stroke-width:0.5;"/><text fill="#000000" font-family="sans-serif" font-size="14" lengthAdjust="spacing" textLength="41.8086" x="107.5" y="79.0352">actor/</text></g><!--entity agent--><g class="entity" data-entity="agent" data-source-line="4" data-uid="ent0004" id="entity_agent"><rect fill="#F1F1F1" height="36.4883" rx="2.5" ry="2.5" style="stroke:#181818;stroke-width:0.5;" width="58.1855" x="184.31" y="25.5"/><text fill="#000000" font-family="sans-serif" font-size="14" lengthAdjust="spacing" textLength="38.1855" x="194.31" y="49.0352">agent</text></g><!--entity artifact--><g class="entity" data-entity="artifact" data-source-line="5" data-uid="ent0005" id="entity_artifact"><rect fill="#F1F1F1" height="39.4883" rx="2.5" ry="2.5" style="stroke:#181818;stroke-width:0.5;" width="78.0293" x="277.39" y="24"/><polygon fill="#F1F1F1" points="338.4193,29,338.4193,43,350.4193,43,350.4193,35,344.4193,29,338.4193,29" style="stroke:#181818;stroke-width:0.5;"/><line style="stroke:#181818;stroke-width:0.5;" x1="344.4193" x2="344.4193" y1="29" y2="35"/><line style="stroke:#181818;stroke-width:0.5;" x1="350.4193" x2="344.4193" y1="35" y2="35"/><text fill="#000000" font-family="sans-serif" font-size="14" lengthAdjust="spacing" textLength="48.0293" x="287.39" y="50.5352">artifact</text></g><!--entity boundary--><g class="entity" data-entity="boundary" data-source-line="6" data-uid="ent0006" id="entity_boundary"><path d="M401.907,23.5 L401.907,47.5 M401.907,35.5 L418.907,35.5" fill="none" style="stroke:#181818;stroke-width:0.5;"/><ellipse cx="430.907" cy="35.5" fill="#F1F1F1" rx="12" ry="12" style="stroke:#181818;stroke-width:0.5;"/><text fill="#000000" font-family="sans-serif" font-size="14" lengthAdjust="spacing" textLength="64.374" x="390.22" y="65.0352">boundary</text></g><!--entity card--><g class="entity" data-entity="card" data-source-line="7" data-uid="ent0007" id="entity_card"><rect fill="#F1F1F1" height="22.4883" rx="2.5" ry="2.5" style="stroke:#181818;stroke-width:0.5;" width="49.4424" x="489.68" y="32.5"/><text fill="#000000" font-family="sans-serif" font-size="14" lengthAdjust="spacing" textLength="29.4424" x="499.68" y="49.0352">card</text></g><!--entity circle--><g class="entity" data-entity="circle" data-source-line="8" data-uid="ent0008" id="entity_circle"><ellipse cx="55.4" cy="170.99" fill="#F1F1F1" rx="8" ry="8" style="stroke:#181818;stroke-width:0.5;"/><text fill="#000000" font-family="sans-serif" font-size="14" lengthAdjust="spacing" textLength="35.9639" x="37.4181" y="201.5252">circle</text></g><!--entity cloud--><g class="entity" data-entity="cloud" data-source-line="9" data-uid="ent0009" id="entity_cloud"><path d="M125.7639,156.1165 C129.3784,148.6854 135.0548,148.8091 139.5767,155.2104 C142.8394,148.5205 148.4032,147.528 152.5302,154.3839 C156.4331,148.1875 161.4328,149.8521 164.533,155.2173 C168.3925,148.7139 174.991,150.2161 177.9353,156.1996 C186.8967,159.4307 189.283,166.159 181.7321,173.0997 C186.3599,179.7376 186.2534,184.2227 177.3924,186.4884 C176.0319,192.6115 170.7883,194.9011 166.2597,189.5667 C162.2278,197.0487 157.4722,197.5127 151.5786,191.6083 C146.9694,196.508 141.7809,194.7679 139.3518,189.0886 C134.905,194.7401 129.8101,194.6976 126.6974,187.7488 C117.4247,186.8743 114.4241,180.6019 119.7025,172.8814 C113.5817,164.3171 115.5812,158.7862 125.7639,156.1165" fill="#F1F1F1" style="stroke:#181818;stroke-width:0.5;"/><text fill="#000000" font-family="sans-serif" font-size="14" lengthAdjust="spacing" textLength="37.3174" x="132.75" y="176.2852">cloud</text></g><!--entity collections--><g class="entity" data-entity="collections" data-source-line="10" data-uid="ent0010" id="entity_collections"><rect fill="#F1F1F1" height="32.4883" rx="2.5" ry="2.5" style="stroke:#181818;stroke-width:0.5;" width="88.543" x="224.13" y="156.75"/><rect fill="#F1F1F1" height="32.4883" rx="2.5" ry="2.5" style="stroke:#181818;stroke-width:0.5;" width="88.543" x="220.13" y="152.75"/><text fill="#000000" font-family="sans-serif" font-size="14" lengthAdjust="spacing" textLength="72.543" x="228.13" y="174.2852">collections</text></g><!--entity component--><g class="entity" data-entity="component" data-source-line="11" data-uid="ent0011" id="entity_component"><rect fill="#F1F1F1" height="46.4883" rx="2.5" ry="2.5" style="stroke:#181818;stroke-width:0.5;" width="116.665" x="348.07" y="147.75"/><rect fill="#F1F1F1" height="10" style="stroke:#181818;stroke-width:0.5;" width="15" x="444.735" y="152.75"/><rect fill="#F1F1F1" height="2" style="stroke:#181818;stroke-width:0.5;" width="4" x="442.735" y="154.75"/><rect fill="#F1F1F1" height="2" style="stroke:#181818;stroke-width:0.5;" width="4" x="442.735" y="158.75"/><text fill="#000000" font-family="sans-serif" font-size="14" lengthAdjust="spacing" textLength="76.665" x="363.07" y="181.2852">component</text></g><!--entity control--><g class="entity" data-entity="control" data-source-line="12" data-uid="ent0012" id="entity_control"><ellipse cx="523.4052" cy="162.75" fill="#F1F1F1" rx="12" ry="12" style="stroke:#181818;stroke-width:0.5;"/><polygon fill="#181818" points="519.4052,150.75,525.4052,145.75,523.4052,150.75,525.4052,155.75,519.4052,150.75" style="stroke:#181818;stroke-width:1;"/><text fill="#000000" font-family="sans-serif" font-size="14" lengthAdjust="spacing" textLength="48.0703" x="499.37" y="192.2852">control</text></g><!--entity database--><g class="entity" data-entity="database" data-source-line="13" data-uid="ent0013" id="entity_database"><path d="M582.91,158.25 C582.91,148.25 623.4051,148.25 623.4051,148.25 C623.4051,148.25 663.9002,148.25 663.9002,158.25 L663.9002,183.7383 C663.9002,193.7383 623.4051,193.7383 623.4051,193.7383 C623.4051,193.7383 582.91,193.7383 582.91,183.7383 L582.91,158.25" fill="#F1F1F1" style="stroke:#181818;stroke-width:0.5;"/><path d="M582.91,158.25 C582.91,168.25 623.4051,168.25 623.4051,168.25 C623.4051,168.25 663.9002,168.25 663.9002,158.25" fill="none" style="stroke:#181818;stroke-width:0.5;"/><text fill="#000000" font-family="sans-serif" font-size="14" lengthAdjust="spacing" textLength="60.9902" x="592.91" y="185.7852">database</text></g><!--entity entity--><g class="entity" data-entity="entity" data-source-line="14" data-uid="ent0014" id="entity_entity"><ellipse cx="55.4011" cy="280.75" fill="#F1F1F1" rx="12" ry="12" style="stroke:#181818;stroke-width:0.5;"/><line style="stroke:#181818;stroke-width:0.5;" x1="43.4011" x2="67.4011" y1="294.75" y2="294.75"/><text fill="#000000" font-family="sans-serif" font-size="14" lengthAdjust="spacing" textLength="38.3223" x="36.24" y="310.2852">entity</text></g><!--entity file--><g class="entity" data-entity="file" data-source-line="15" data-uid="ent0015" id="entity_file"><path d="M109.88,273.25 L109.88,304.7383 A2.5,2.5 0 0 0 112.38,307.2383 L148.421,307.2383 A2.5,2.5 0 0 0 150.921,304.7383 L150.921,280.75 L140.921,270.75 L112.38,270.75 A2.5,2.5 0 0 0 109.88,273.25" fill="#F1F1F1" style="stroke:#181818;stroke-width:0.5;"/><path d="M140.921,270.75 L140.921,278.25 A2.5,2.5 0 0 0 143.421,280.75 L150.921,280.75" fill="#F1F1F1" style="stroke:#181818;stroke-width:0.5;"/><text fill="#000000" font-family="sans-serif" font-size="14" lengthAdjust="spacing" textLength="21.041" x="119.88" y="294.2852">file</text></g><!--entity folder--><g class="entity" data-entity="folder" data-source-line="16" data-uid="ent0016" id="entity_folder"><path d="M188.84,261.75 L229.84,261.75 A3.75,3.75 0 0 1 232.34,264.25 L239.34,282.75 L253.9738,282.75 A2.5,2.5 0 0 1 256.4738,285.25 L256.4738,313.7383 A2.5,2.5 0 0 1 253.9738,316.2383 L188.84,316.2383 A2.5,2.5 0 0 1 186.34,313.7383 L186.34,264.25 A2.5,2.5 0 0 1 188.84,261.75" fill="#F1F1F1" style="stroke:#181818;stroke-width:0.5;"/><line style="stroke:#181818;stroke-width:0.5;" x1="186.34" x2="239.34" y1="282.75" y2="282.75"/><text fill="#000000" font-family="sans-serif" font-size="14" lengthAdjust="spacing" textLength="40.1338" x="196.34" y="303.2852">folder</text></g><!--entity frame--><g class="entity" data-entity="frame" data-source-line="17" data-uid="ent0017" id="entity_frame"><rect fill="#F1F1F1" height="46.4883" rx="2.5" ry="2.5" style="stroke:#181818;stroke-width:0.5;" width="79.4775" x="291.67" y="265.75"/><path d="M318.1625,265.75 L318.1625,270.75 L311.1625,277.75 L291.67,277.75" fill="none" style="stroke:#181818;stroke-width:0.5;"/><text fill="#000000" font-family="sans-serif" font-size="14" lengthAdjust="spacing" textLength="39.4775" x="306.67" y="299.2852">frame</text></g><!--entity interface--><g class="entity" data-entity="interface" data-source-line="18" data-uid="ent0018" id="entity_interface"><ellipse cx="443.4" cy="288.99" fill="#F1F1F1" rx="8" ry="8" style="stroke:#181818;stroke-width:0.5;"/><text fill="#000000" font-family="sans-serif" font-size="14" lengthAdjust="spacing" textLength="59.3496" x="413.7252" y="319.5252">interface</text></g><!--entity label--><g class="entity" data-entity="label" data-source-line="19" data-uid="ent0019" id="entity_label"><text fill="#000000" font-family="sans-serif" font-size="14" lengthAdjust="spacing" textLength="32.4365" x="525.19" y="294.2852">label</text></g><!--entity node--><g class="entity" data-entity="node" data-source-line="20" data-uid="ent0020" id="entity_node"><polygon fill="#F1F1F1" points="18.45,387.99,28.45,377.99,92.3494,377.99,92.3494,414.4783,82.3494,424.4783,18.45,424.4783,18.45,387.99" style="stroke:#181818;stroke-width:0.5;"/><line style="stroke:#181818;stroke-width:0.5;" x1="82.3494" x2="92.3494" y1="387.99" y2="377.99"/><line style="stroke:#181818;stroke-width:0.5;" x1="18.45" x2="82.3494" y1="387.99" y2="387.99"/><line style="stroke:#181818;stroke-width:0.5;" x1="82.3494" x2="82.3494" y1="387.99" y2="424.4783"/><text fill="#000000" font-family="sans-serif" font-size="14" lengthAdjust="spacing" textLength="33.8994" x="33.45" y="411.5252">node</text></g><!--entity package--><g class="entity" data-entity="package" data-source-line="21" data-uid="ent0021" id="entity_package"><path d="M130.16,381.49 L202.6463,381.49 A3.75,3.75 0 0 1 205.1463,383.99 L212.1463,403.9783 L226.6463,403.9783 A2.5,2.5 0 0 1 229.1463,406.4783 L229.1463,418.4783 A2.5,2.5 0 0 1 226.6463,420.9783 L130.16,420.9783 A2.5,2.5 0 0 1 127.66,418.4783 L127.66,383.99 A2.5,2.5 0 0 1 130.16,381.49" fill="#F1F1F1" style="stroke:#181818;stroke-width:0.5;"/><line style="stroke:#181818;stroke-width:0.5;" x1="127.66" x2="212.1463" y1="403.9783" y2="403.9783"/><text fill="#000000" font-family="sans-serif" font-size="14" font-weight="bold" lengthAdjust="spacing" textLength="59.4863" x="137.66" y="398.0252">package</text></g><!--entity queue--><g class="entity" data-entity="queue" data-source-line="22" data-uid="ent0022" id="entity_queue"><path d="M269.51,387.99 L321.2981,387.99 C326.2981,387.99 326.2981,401.2341 326.2981,401.2341 C326.2981,401.2341 326.2981,414.4783 321.2981,414.4783 L269.51,414.4783 C264.51,414.4783 264.51,401.2341 264.51,401.2341 C264.51,401.2341 264.51,387.99 269.51,387.99" fill="#F1F1F1" style="stroke:#181818;stroke-width:0.5;"/><path d="M321.2981,387.99 C316.2981,387.99 316.2981,401.2341 316.2981,401.2341 C316.2981,414.4783 321.2981,414.4783 321.2981,414.4783" fill="none" style="stroke:#181818;stroke-width:0.5;"/><text fill="#000000" font-family="sans-serif" font-size="14" lengthAdjust="spacing" textLength="41.7881" x="269.51" y="406.5252">queue</text></g><!--entity rectangle--><g class="entity" data-entity="rectangle" data-source-line="23" data-uid="ent0023" id="entity_rectangle"><rect fill="#F1F1F1" height="36.4883" rx="2.5" ry="2.5" style="stroke:#181818;stroke-width:0.5;" width="82.9316" x="360.94" y="382.99"/><text fill="#000000" font-family="sans-serif" font-size="14" lengthAdjust="spacing" textLength="62.9316" x="370.94" y="406.5252">rectangle</text></g><!--entity stack--><g class="entity" data-entity="stack" data-source-line="24" data-uid="ent0024" id="entity_stack"><rect fill="#F1F1F1" height="36.4883" rx="2.5" ry="2.5" style="stroke:none;stroke-width:0.5;" width="55.458" x="493.68" y="382.99"/><path d="M478.68,382.99 L491.18,382.99 A2.5,2.5 0 0 1 493.68,385.49 L493.68,416.9783 A2.5,2.5 0 0 0 496.18,419.4783 L546.638,419.4783 A2.5,2.5 0 0 0 549.138,416.9783 L549.138,385.49 A2.5,2.5 0 0 1 551.638,382.99 L564.138,382.99" fill="none" style="stroke:#181818;stroke-width:0.5;"/><text fill="#000000" font-family="sans-serif" font-size="14" lengthAdjust="spacing" textLength="35.458" x="503.68" y="406.5252">stack</text></g><!--entity storage--><g class="entity" data-entity="storage" data-source-line="25" data-uid="ent0025" id="entity_storage"><rect fill="#F1F1F1" height="36.4883" rx="35" ry="35" style="stroke:#181818;stroke-width:0.5;" width="70.9619" x="598.92" y="382.99"/><text fill="#000000" font-family="sans-serif" font-size="14" lengthAdjust="spacing" textLength="50.9619" x="608.92" y="406.5252">storage</text></g><g class="entity" data-entity="usecase" data-source-line="26" data-uid="ent0026" id="entity_usecase"><ellipse cx="55.4043" cy="499.2178" fill="#F1F1F1" rx="49.4043" ry="14.6878" style="stroke:#181818;stroke-width:0.5;"/><text fill="#000000" font-family="sans-serif" font-size="14" lengthAdjust="spacing" textLength="53.4639" x="26.3703" y="503.0886">usecase</text></g><g class="entity" data-entity="usecase/" data-source-line="27" data-uid="ent0027" id="entity_usecase/"><ellipse cx="194.4049" cy="499.2245" fill="#F1F1F1" rx="54.8149" ry="14.7345" style="stroke:#181818;stroke-width:0.5;"/><text fill="#000000" font-family="sans-serif" font-size="14" lengthAdjust="spacing" textLength="60.8057" x="161.0021" y="503.2421">usecase/</text></g><line style="stroke:#181818;stroke-width:0.5;" x1="244.8508" x2="228.6723" y1="494.0881" y2="510.2665"/><!--SRC=[JP113iCW30Jl-meh7-YR770gL8fJ1mxzVGq9KI-p0mRPmA6g4NTYy47BcGluAQNI8DXgshn0Kx1gAv7jIrCGs29r82GBMUWCXApD2vq8chE4chGSzEU-_zwrz7wt-LwfffckHEJAAnz2K-2dKltI6TYIz-p0fZcAqHdOZDzUw4GgLSpd5xeDcLV9D8YYKQW3EuUNlvsknAT94ng4-TXSdjxkDXpL3zAWkrg_UoNQ8Q4FVkLS-rzFMtu0]--></g></svg>