<svg xmlns="http://www.w3.org/2000/svg" xmlns:xlink="http://www.w3.org/1999/xlink" contentStyleType="text/css" data-diagram-type="CLASS" height="391px" preserveAspectRatio="none" style="width:404px;height:391px;background:#FFFFFF;" version="1.1" viewBox="0 0 404 391" width="404px" zoomAndPan="magnify"><defs/><g><text fill="#FF0000" font-family="sans-serif" font-size="10" lengthAdjust="spacing" textLength="182.7148" x="204.1625" y="9.668">Yui Semba - &#12489;&#12461;&#12517;&#12513;&#12531;&#12488;&#31649;&#29702;&#12471;&#12473;&#12486;&#12512;</text><!--class AbstractList--><g class="entity" data-entity="AbstractList" data-source-line="6" data-uid="ent0002" id="entity_AbstractList"><rect fill="#F1F1F1" height="48" rx="2.5" ry="2.5" style="stroke:#181818;stroke-width:0.5;" width="112.5957" x="199.02" y="177.2373"/><ellipse cx="214.02" cy="193.2373" fill="#A9DCDF" rx="11" ry="11" style="stroke:#181818;stroke-width:1;"/><path d="M213.8833,188.5855 L212.7295,193.6573 L215.0454,193.6573 Z M212.3891,186.3443 L215.3857,186.3443 L218.7309,198.7373 L216.2822,198.7373 L215.5185,195.6744 L212.2397,195.6744 L211.4927,198.7373 L209.0439,198.7373 Z " fill="#000000"/><text fill="#000000" font-family="sans-serif" font-size="14" font-style="italic" lengthAdjust="spacing" textLength="80.5957" x="228.02" y="198.5284">AbstractList</text><line style="stroke:#181818;stroke-width:0.5;" x1="200.02" x2="310.6157" y1="209.2373" y2="209.2373"/><line style="stroke:#181818;stroke-width:0.5;" x1="200.02" x2="310.6157" y1="217.2373" y2="217.2373"/></g><!--class AbstractCollection--><g class="entity" data-entity="AbstractCollection" data-source-line="7" data-uid="ent0003" id="entity_AbstractCollection"><rect fill="#F1F1F1" height="48" rx="2.5" ry="2.5" style="stroke:#181818;stroke-width:0.5;" width="156.6328" x="7" y="177.2373"/><ellipse cx="22" cy="193.2373" fill="#A9DCDF" rx="11" ry="11" style="stroke:#181818;stroke-width:1;"/><path d="M21.8633,188.5855 L20.7095,193.6573 L23.0254,193.6573 Z M20.3691,186.3443 L23.3657,186.3443 L26.7109,198.7373 L24.2622,198.7373 L23.4985,195.6744 L20.2197,195.6744 L19.4727,198.7373 L17.0239,198.7373 Z " fill="#000000"/><text fill="#000000" font-family="sans-serif" font-size="14" font-style="italic" lengthAdjust="spacing" textLength="124.6328" x="36" y="198.5284">AbstractCollection</text><line style="stroke:#181818;stroke-width:0.5;" x1="8" x2="162.6328" y1="209.2373" y2="209.2373"/><line style="stroke:#181818;stroke-width:0.5;" x1="8" x2="162.6328" y1="217.2373" y2="217.2373"/></g><!--class List--><g class="entity" data-entity="List" data-source-line="8" data-uid="ent0004" id="entity_List"><rect fill="#F1F1F1" height="48" rx="2.5" ry="2.5" style="stroke:#181818;stroke-width:0.5;" width="55.8848" x="212.37" y="44.5073"/><ellipse cx="227.37" cy="60.5073" fill="#B4A7E5" rx="11" ry="11" style="stroke:#181818;stroke-width:1;"/><path d="M223.7977,56.7725 L223.7977,54.6143 L231.1771,54.6143 L231.1771,56.7725 L228.7118,56.7725 L228.7118,64.8491 L231.1771,64.8491 L231.1771,67.0073 L223.7977,67.0073 L223.7977,64.8491 L226.2631,64.8491 L226.2631,56.7725 Z " fill="#000000"/><text fill="#000000" font-family="sans-serif" font-size="14" font-style="italic" lengthAdjust="spacing" textLength="23.8848" x="241.37" y="65.7984">List</text><line style="stroke:#181818;stroke-width:0.5;" x1="213.37" x2="267.2548" y1="76.5073" y2="76.5073"/><line style="stroke:#181818;stroke-width:0.5;" x1="213.37" x2="267.2548" y1="84.5073" y2="84.5073"/></g><!--class Collection--><g class="entity" data-entity="Collection" data-source-line="9" data-uid="ent0005" id="entity_Collection"><rect fill="#F1F1F1" height="48" rx="2.5" ry="2.5" style="stroke:#181818;stroke-width:0.5;" width="99.9219" x="63.36" y="44.5073"/><ellipse cx="78.36" cy="60.5073" fill="#B4A7E5" rx="11" ry="11" style="stroke:#181818;stroke-width:1;"/><path d="M74.7877,56.7725 L74.7877,54.6143 L82.1671,54.6143 L82.1671,56.7725 L79.7018,56.7725 L79.7018,64.8491 L82.1671,64.8491 L82.1671,67.0073 L74.7877,67.0073 L74.7877,64.8491 L77.2531,64.8491 L77.2531,56.7725 Z " fill="#000000"/><text fill="#000000" font-family="sans-serif" font-size="14" font-style="italic" lengthAdjust="spacing" textLength="67.9219" x="92.36" y="65.7984">Collection</text><line style="stroke:#181818;stroke-width:0.5;" x1="64.36" x2="162.2819" y1="76.5073" y2="76.5073"/><line style="stroke:#181818;stroke-width:0.5;" x1="64.36" x2="162.2819" y1="84.5073" y2="84.5073"/></g><!--class ArrayList--><g class="entity" data-entity="ArrayList" data-source-line="16" data-uid="ent0010" id="entity_ArrayList"><rect fill="#F1F1F1" height="80.9766" rx="2.5" ry="2.5" style="stroke:#181818;stroke-width:0.5;" width="155.3154" x="177.66" y="285.2373"/><ellipse cx="221.1308" cy="301.2373" fill="#ADD1B2" rx="11" ry="11" style="stroke:#181818;stroke-width:1;"/><path d="M223.604,307.3804 Q223.0229,307.6792 222.3838,307.8287 Q221.7446,307.9781 221.0391,307.9781 Q218.5322,307.9781 217.2124,306.3262 Q215.8926,304.6744 215.8926,301.5533 Q215.8926,298.4239 217.2124,296.772 Q218.5322,295.1202 221.0391,295.1202 Q221.7446,295.1202 222.3921,295.2696 Q223.0395,295.419 223.604,295.7178 L223.604,298.4405 Q222.9731,297.8594 222.3796,297.5896 Q221.7861,297.3199 221.1553,297.3199 Q219.8105,297.3199 219.1257,298.3865 Q218.4409,299.4532 218.4409,301.5533 Q218.4409,303.6451 219.1257,304.7117 Q219.8105,305.7784 221.1553,305.7784 Q221.7861,305.7784 222.3796,305.5086 Q222.9731,305.2388 223.604,304.6578 Z " fill="#000000"/><text fill="#000000" font-family="sans-serif" font-size="14" lengthAdjust="spacing" textLength="60.0469" x="241.4577" y="306.5284">ArrayList</text><line style="stroke:#181818;stroke-width:0.5;" x1="178.66" x2="331.9754" y1="317.2373" y2="317.2373"/><text fill="#000000" font-family="sans-serif" font-size="14" lengthAdjust="spacing" textLength="143.3154" x="183.66" y="334.7725">Object[] elementData</text><line style="stroke:#181818;stroke-width:0.5;" x1="178.66" x2="331.9754" y1="341.7256" y2="341.7256"/><text fill="#000000" font-family="sans-serif" font-size="14" lengthAdjust="spacing" textLength="36.1143" x="183.66" y="359.2608">size()</text></g><!--class TimeUnit--><g class="entity" data-entity="TimeUnit" data-source-line="23" data-uid="ent0012" id="entity_TimeUnit"><rect fill="#F1F1F1" height="97.4648" rx="2.5" ry="2.5" style="stroke:#181818;stroke-width:0.5;" width="93.4414" x="303.6" y="19.7773"/><ellipse cx="318.6" cy="35.7773" fill="#EB937F" rx="11" ry="11" style="stroke:#181818;stroke-width:1;"/><path d="M322.2143,42.2773 L314.4945,42.2773 L314.4945,29.8843 L322.2143,29.8843 L322.2143,32.0425 L316.9433,32.0425 L316.9433,34.7153 L321.7162,34.7153 L321.7162,36.8735 L316.9433,36.8735 L316.9433,40.1191 L322.2143,40.1191 Z " fill="#000000"/><text fill="#000000" font-family="sans-serif" font-size="14" lengthAdjust="spacing" textLength="61.4414" x="332.6" y="41.0684">TimeUnit</text><line style="stroke:#181818;stroke-width:0.5;" x1="304.6" x2="396.0414" y1="51.7773" y2="51.7773"/><text fill="#000000" font-family="sans-serif" font-size="14" lengthAdjust="spacing" textLength="36.4082" x="309.6" y="69.3125">DAYS</text><text fill="#000000" font-family="sans-serif" font-size="14" lengthAdjust="spacing" textLength="47.2568" x="309.6" y="85.8008">HOURS</text><text fill="#000000" font-family="sans-serif" font-size="14" lengthAdjust="spacing" textLength="60.1152" x="309.6" y="102.2891">MINUTES</text><line style="stroke:#181818;stroke-width:0.5;" x1="304.6" x2="396.0414" y1="109.2422" y2="109.2422"/></g><!--reverse link List to AbstractList--><g class="link" data-entity-1="List" data-entity-2="AbstractList" data-source-line="11" data-uid="lnk6" id="link_List_AbstractList"><path codeLine="11" d="M245.0513,110.7601 C247.7813,134.5601 249.94,153.3473 252.66,177.0673" fill="none" id="List-backto-AbstractList" style="stroke:#181818;stroke-width:1;"/><polygon fill="none" points="243,92.8773,239.0903,111.4438,251.0122,110.0763,243,92.8773" style="stroke:#181818;stroke-width:1;"/></g><!--reverse link Collection to AbstractCollection--><g class="link" data-entity-1="Collection" data-entity-2="AbstractCollection" data-source-line="12" data-uid="lnk7" id="link_Collection_AbstractCollection"><path codeLine="12" d="M104.5385,110.4778 C99.4385,134.2778 95.36,153.3473 90.28,177.0673" fill="none" id="Collection-backto-AbstractCollection" style="stroke:#181818;stroke-width:1;"/><polygon fill="none" points="108.31,92.8773,98.6717,109.2206,110.4053,111.735,108.31,92.8773" style="stroke:#181818;stroke-width:1;"/></g><!--reverse link Collection to List--><g class="link" data-entity-1="Collection" data-entity-2="List" data-source-line="14" data-uid="lnk8" id="link_Collection_List"><path codeLine="14" d="M181.42,68.5073 C197.64,68.5073 195.86,68.5073 212.08,68.5073" fill="none" id="Collection-backto-List" style="stroke:#181818;stroke-width:1;"/><polygon fill="none" points="163.42,68.5073,181.42,74.5073,181.42,62.5073,163.42,68.5073" style="stroke:#181818;stroke-width:1;"/></g><!--reverse link AbstractCollection to AbstractList--><g class="link" data-entity-1="AbstractCollection" data-entity-2="AbstractList" data-source-line="15" data-uid="lnk9" id="link_AbstractCollection_AbstractList"><path codeLine="15" d="M182.01,201.2373 C193.54,201.2373 187.07,201.2373 198.61,201.2373" fill="none" id="AbstractCollection-backto-AbstractList" style="stroke:#181818;stroke-width:1;"/><polygon fill="none" points="164.01,201.2373,182.01,207.2373,182.01,195.2373,164.01,201.2373" style="stroke:#181818;stroke-width:1;"/></g><!--reverse link AbstractList to ArrayList--><g class="link" data-entity-1="AbstractList" data-entity-2="ArrayList" data-source-line="16" data-uid="lnk11" id="link_AbstractList_ArrayList"><path codeLine="16" d="M255.32,243.5673 C255.32,260.3673 255.32,265.4373 255.32,285.0973" fill="none" id="AbstractList-backto-ArrayList" style="stroke:#181818;stroke-width:1;"/><polygon fill="none" points="255.32,225.5673,249.32,243.5673,261.32,243.5673,255.32,225.5673" style="stroke:#181818;stroke-width:1;"/></g><text fill="#888888" font-family="sans-serif" font-size="10" font-weight="bold" lengthAdjust="spacing" textLength="223.9795" x="166.0619" y="381.8819">Copyright &#169; Yui Semba. All rights reserved.</text><!--SRC=[dOyz3u8m48Rt-nNdX0x27t0XOgA9IY8m6EDGwvdKjCNGCk37VnSG0iH9kxttFdqkvpau_UcXuy58Q2xpCw7hUf8LQMxTMwuaUF_8W9sCpHYto2Kp1lqcheMnNTTEvwcKnAr8DGXjARimJbYZNUmnK5KuUvQh1juE6PRzhqFci-IRgxk1knyQUvQnekwWkR4Tu0F2qxKq7Ov8aXHf6p3Bm8WxZIVm0Y2TAuo5eaIB2W_yVGJBCDb5i5bjatWHbTGR]--></g></svg>