<svg xmlns="http://www.w3.org/2000/svg" xmlns:xlink="http://www.w3.org/1999/xlink" contentStyleType="text/css" data-diagram-type="STATE" height="314.1563px" preserveAspectRatio="none" style="width:350px;height:314px;background:#FFFFFF;" version="1.1" viewBox="0 0 350 314" width="350.6582px" zoomAndPan="magnify"><defs/><g><text fill="#FF0000" font-family="sans-serif" font-size="5.9839" lengthAdjust="spacing" textLength="109.3353" x="230.9923" y="5.7852">Yui Semba - &#12489;&#12461;&#12517;&#12513;&#12531;&#12488;&#31649;&#29702;&#12471;&#12473;&#12486;&#12512;</text><!--cluster NotShooting--><g class="cluster" data-entity="NotShooting" data-source-line="9" data-uid="ent0002" id="cluster_NotShooting"><path d="M286.8696,102.7844 L335.3394,102.7844 A7.4799,7.4799 0 0 1 342.8193,110.2643 L342.8193,115.6428 L279.3896,115.6428 L279.3896,110.2643 A7.4799,7.4799 0 0 1 286.8696,102.7844" fill="#F1F1F1" style="stroke:#F1F1F1;stroke-width:0.5984;"/><rect fill="none" height="196.8653" rx="7.4799" ry="7.4799" style="stroke:#181818;stroke-width:0.2992;" width="63.4296" x="279.3896" y="102.7844"/><line style="stroke:#181818;stroke-width:0.2992;" x1="279.3896" x2="342.8193" y1="115.6428" y2="115.6428"/><text fill="#000000" font-family="sans-serif" font-size="8.3775" lengthAdjust="spacing" textLength="50.4491" x="285.8799" y="113.2773">NotShooting</text></g><ellipse cx="308.7109" cy="134.4992" fill="#222222" rx="5.9839" ry="5.9839" style="stroke:#222222;stroke-width:0.5984;"/><g id="NotShooting.Idle"><rect fill="#F1F1F1" height="29.9196" rx="7.4799" ry="7.4799" style="stroke:#181818;stroke-width:0.2992;" width="29.9196" x="293.7511" y="255.3686"/><line style="stroke:#181818;stroke-width:0.2992;" x1="293.7511" x2="323.6707" y1="271.219" y2="271.219"/><text fill="#000000" font-family="sans-serif" font-size="8.3775" lengthAdjust="spacing" textLength="14.7752" x="301.3233" y="266.4599">Idle</text></g><path d="M11.6687,59.7061 L257.4885,59.7061 A7.4799,7.4799 0 0 1 264.9684,67.186 L264.9684,75.5565 L4.1888,75.5565 L4.1888,67.186 A7.4799,7.4799 0 0 1 11.6687,59.7061" fill="#F1F1F1" style="stroke:#F1F1F1;stroke-width:0.5984;"/><rect fill="none" height="149.5852" rx="7.4799" ry="7.4799" style="stroke:#181818;stroke-width:0.2992;" width="260.7796" x="4.1888" y="59.7061"/><line style="stroke:#181818;stroke-width:0.2992;" x1="4.1888" x2="264.9684" y1="75.5565" y2="75.5565"/><text fill="#000000" font-family="sans-serif" font-size="8.3775" lengthAdjust="spacing" textLength="48.3383" x="110.4094" y="70.7974">Configuring</text><path d="M76.3609,82.7372 L159.1764,82.7372 A7.4799,7.4799 0 0 1 166.6563,90.2171 L166.6563,98.5876 L68.881,98.5876 L68.881,90.2171 A7.4799,7.4799 0 0 1 76.3609,82.7372" fill="#F1F1F1" style="stroke:#F1F1F1;stroke-width:0.5984;"/><rect fill="none" height="58.9347" rx="7.4799" ry="7.4799" style="stroke:#181818;stroke-width:0.2992;" width="97.7753" x="68.881" y="82.7372"/><line style="stroke:#181818;stroke-width:0.2992;" x1="68.881" x2="166.6563" y1="98.5876" y2="98.5876"/><text fill="#000000" font-family="sans-serif" font-size="8.3775" lengthAdjust="spacing" textLength="70.3088" x="82.6142" y="93.8285">NewValuePreview</text><g id="Configuring.NewValuePreview.State1"><rect fill="#F1F1F1" height="29.9196" rx="7.4799" ry="7.4799" style="stroke:#181818;stroke-width:0.2992;" width="37.3376" x="76.0617" y="105.7683"/><line style="stroke:#181818;stroke-width:0.2992;" x1="76.0617" x2="113.3993" y1="121.6187" y2="121.6187"/><text fill="#000000" font-family="sans-serif" font-size="8.3775" lengthAdjust="spacing" textLength="25.3698" x="82.0456" y="116.8596">State1</text></g><g id="Configuring.NewValuePreview.State2"><rect fill="#F1F1F1" height="29.9196" rx="7.4799" ry="7.4799" style="stroke:#181818;stroke-width:0.2992;" width="37.3376" x="123.9332" y="105.7683"/><line style="stroke:#181818;stroke-width:0.2992;" x1="123.9332" x2="161.2708" y1="121.6187" y2="121.6187"/><text fill="#000000" font-family="sans-serif" font-size="8.3775" lengthAdjust="spacing" textLength="25.3698" x="129.9171" y="116.8596">State2</text></g><!--link State1 to State2--><g class="link" data-entity-1="State1" data-entity-2="State2" data-source-line="22" data-uid="lnk17" id="link_State1_State2"><path d="M113.6169,120.7281 C117.0157,120.7281 116.8183,120.7281 120.2171,120.7281" fill="none" id="State1-to-State2" style="stroke:#181818;stroke-width:0.5984;"/><polygon fill="#181818" points="123.8075,120.7281,118.422,118.3345,120.8155,120.7281,118.422,123.1217,123.8075,120.7281" style="stroke:#181818;stroke-width:0.5984;"/></g><ellipse cx="254.1973" cy="112.208" fill="#222222" rx="5.9839" ry="5.9839" style="stroke:#222222;stroke-width:0.5984;"/><g id="Configuring.NewValueSelection"><rect fill="#F1F1F1" height="29.9196" rx="7.4799" ry="7.4799" style="stroke:#181818;stroke-width:0.2992;" width="88.1303" x="114.3888" y="173.3877"/><line style="stroke:#181818;stroke-width:0.2992;" x1="114.3888" x2="202.5191" y1="189.2381" y2="189.2381"/><text fill="#000000" font-family="sans-serif" font-size="8.3775" lengthAdjust="spacing" textLength="76.1624" x="120.3727" y="184.479">NewValueSelection</text></g><!--link *start*Configuring to NewValueSelection--><g class="link" data-entity-1="*start*Configuring" data-entity-2="NewValueSelection" data-source-line="16" data-uid="lnk11" id="link_*start*Configuring_NewValueSelection"><path d="M253.7545,118.4493 C252.6475,128.6878 248.8656,150.4094 236.2455,162.6166 C227.114,171.4489 218.2966,176.12 206.2151,179.836" fill="none" id="*start*Configuring-to-NewValueSelection" style="stroke:#181818;stroke-width:0.5984;"/><polygon fill="#181818" points="202.7834,180.8916,208.6346,181.5961,205.6431,180.012,207.2273,177.0205,202.7834,180.8916" style="stroke:#181818;stroke-width:0.5984;"/></g><!--link NewValueSelection to NewValuePreview--><g class="link" data-entity-1="NewValueSelection" data-entity-2="NewValuePreview" data-source-line="17" data-uid="lnk12" id="link_NewValueSelection_NewValuePreview"><path d="M179.7931,173.1184 C186.0044,167.0029 190.1334,159.6546 185.9805,152.444 C181.4028,144.4913 177.5043,140.0289 169.8807,134.757" fill="none" id="NewValueSelection-to-NewValuePreview" style="stroke:#181818;stroke-width:0.5984;"/><polygon fill="#181818" points="166.9277,132.7149,169.9959,137.7468,169.3886,134.4167,172.7187,133.8094,166.9277,132.7149" style="stroke:#181818;stroke-width:0.5984;"/><text fill="#000000" font-family="sans-serif" font-size="7.7791" lengthAdjust="spacing" textLength="45.1097" x="188.2544" y="160.5632">EvNewValue</text></g><!--link NewValuePreview to NewValueSelection--><g class="link" data-entity-1="NewValuePreview" data-entity-2="NewValueSelection" data-source-line="18" data-uid="lnk13" id="link_NewValuePreview_NewValueSelection"><path d="M68.6117,122.2969 C39.3503,130.1658 10.7711,143.2287 26.808,162.6166 C37.8244,175.9309 76.7815,181.9423 110.5608,184.9043" fill="none" id="NewValuePreview-to-NewValueSelection" style="stroke:#181818;stroke-width:0.5984;"/><polygon fill="#181818" points="114.1375,185.2179,108.9816,182.3631,111.1569,184.9566,108.5634,187.1319,114.1375,185.2179" style="stroke:#181818;stroke-width:0.5984;"/><text fill="#000000" font-family="sans-serif" font-size="7.7791" lengthAdjust="spacing" textLength="77.1871" x="27.4064" y="160.5632">EvNewValueRejected</text></g><!--link NewValuePreview to NewValueSelection--><g class="link" data-entity-1="NewValuePreview" data-entity-2="NewValueSelection" data-source-line="19" data-uid="lnk14" id="link_NewValuePreview_NewValueSelection"><path d="M111.5404,141.7567 C111.3489,148.9493 112.4141,156.3754 115.9685,162.6166 C118.3083,166.7096 118.7906,167.968 122.5185,170.936" fill="none" id="NewValuePreview-to-NewValueSelection-1" style="stroke:#181818;stroke-width:0.5984;"/><polygon fill="#181818" points="125.3274,173.1723,122.605,167.9453,122.9867,171.3087,119.6233,171.6905,125.3274,173.1723" style="stroke:#181818;stroke-width:0.5984;"/><text fill="#000000" font-family="sans-serif" font-size="7.7791" lengthAdjust="spacing" textLength="66.8517" x="116.5669" y="160.5632">EvNewValueSaved</text></g><ellipse cx="338.0321" cy="17.2202" fill="#222222" rx="5.9839" ry="5.9839" style="stroke:#222222;stroke-width:0.5984;"/><!--link *start* to NotShooting--><g class="link" data-entity-1="*start*" data-entity-2="NotShooting" data-source-line="7" data-uid="lnk3" id="link_*start*_NotShooting"><path d="M338.0321,23.4195 C338.0321,34.8309 338.0321,61.7735 338.0321,86.1939 C338.0321,89.2465 338.0321,92.2596 338.0321,95.1981 C338.0321,96.6673 338.0321,98.1179 338.0321,99.5454 C338.0321,100.2591 338.0321,100.9671 338.0321,101.6688 C338.0321,102.0196 338.0321,98.7785 338.0321,99.1261" fill="none" id="*start*-to-NotShooting" style="stroke:#181818;stroke-width:0.5984;"/><polygon fill="#181818" points="338.0321,102.7164,340.4257,97.3309,338.0321,99.7245,335.6386,97.3309,338.0321,102.7164" style="stroke:#181818;stroke-width:0.5984;"/></g><!--link *start*NotShooting to Idle--><g class="link" data-entity-1="*start*NotShooting" data-entity-2="Idle" data-source-line="10" data-uid="lnk6" id="link_*start*NotShooting_Idle"><path d="M308.7109,140.7105 C308.7109,160.272 308.7109,222.2296 308.7109,251.6406" fill="none" id="*start*NotShooting-to-Idle" style="stroke:#181818;stroke-width:0.5984;"/><polygon fill="#181818" points="308.7109,255.2309,311.1045,249.8454,308.7109,252.239,306.3173,249.8454,308.7109,255.2309" style="stroke:#181818;stroke-width:0.5984;"/></g><!--link Idle to Configuring--><g class="link" data-entity-1="Idle" data-entity-2="Configuring" data-source-line="11" data-uid="lnk7" id="link_Idle_Configuring"><path d="M293.5716,258.0254 C278.9109,246.6919 258.1925,230.673 233.6524,211.6979" fill="none" id="Idle-to-Configuring" style="stroke:#181818;stroke-width:0.5984;"/><polygon fill="#181818" points="230.8121,209.5017,233.6084,214.6896,233.179,211.3319,236.5367,210.9025,230.8121,209.5017" style="stroke:#181818;stroke-width:0.5984;"/><text fill="#000000" font-family="sans-serif" font-size="7.7791" lengthAdjust="spacing" textLength="33.1904" x="267.2303" y="235.3633">EvConfig</text></g><!--link Configuring to Idle--><g class="link" data-entity-1="Configuring" data-entity-2="Idle" data-source-line="12" data-uid="lnk8" id="link_Configuring_Idle"><path d="M187.1474,209.4898 C196.6917,219.8061 207.1876,229.5479 218.3536,237.4168 C241.7747,253.9264 271.0025,262.0822 289.9656,266.1572" fill="none" id="Configuring-to-Idle" style="stroke:#181818;stroke-width:0.5984;"/><polygon fill="#181818" points="293.4758,266.9116,288.7134,263.4399,290.5506,266.283,287.7076,268.1202,293.4758,266.9116" style="stroke:#181818;stroke-width:0.5984;"/><text fill="#000000" font-family="sans-serif" font-size="7.7791" lengthAdjust="spacing" textLength="33.1904" x="218.952" y="235.3633">EvConfig</text></g><text fill="#888888" font-family="sans-serif" font-size="5.9839" font-weight="bold" lengthAdjust="spacing" textLength="134.0277" x="208.1932" y="308.4268">Copyright &#169; Yui Semba. All rights reserved.</text><!--SRC=[dL2z2i8m4Dxp5ETK46pzmSN1HHnSYbXm4OVGdcqaDbAJ5f6-kzTg85KNUqjotzzn5tWm-gl02zX0vB4q2OBl1vBVbT7-rLma2_g4iLlC9S9iFePA93fZX-6HOfOGAXrbIccHfoJINACBmOC1MEacaKXjyxJzIkKdaPgYqIrWNRvwKhY4DRgAsavoXUwa4AizbmOZb1XheNBYlh2ESbjWAR1gfrZCCLdwPtZ7jCCpePZqCaUy92TPtuVy26XMf8eQSWAKrlwcXD95wYS0]--></g></svg>