<svg xmlns="http://www.w3.org/2000/svg" xmlns:xlink="http://www.w3.org/1999/xlink" contentStyleType="text/css" data-diagram-type="GANTT" height="116px" preserveAspectRatio="none" style="width:416px;height:116px;background:#FFFFFF;" version="1.1" viewBox="0 0 416 116" width="416px" zoomAndPan="magnify"><defs/><g><line style="stroke:#C0C0C0;stroke-width:1;" x1="0" x2="0" y1="6" y2="108.7754"/><line style="stroke:#C0C0C0;stroke-width:1;" x1="16" x2="16" y1="6" y2="108.7754"/><line style="stroke:#C0C0C0;stroke-width:1;" x1="32" x2="32" y1="6" y2="108.7754"/><line style="stroke:#C0C0C0;stroke-width:1;" x1="48" x2="48" y1="6" y2="108.7754"/><line style="stroke:#C0C0C0;stroke-width:1;" x1="64" x2="64" y1="6" y2="108.7754"/><line style="stroke:#C0C0C0;stroke-width:1;" x1="80" x2="80" y1="6" y2="108.7754"/><line style="stroke:#C0C0C0;stroke-width:1;" x1="96" x2="96" y1="6" y2="108.7754"/><line style="stroke:#C0C0C0;stroke-width:1;" x1="112" x2="112" y1="6" y2="108.7754"/><line style="stroke:#C0C0C0;stroke-width:1;" x1="128" x2="128" y1="6" y2="108.7754"/><line style="stroke:#C0C0C0;stroke-width:1;" x1="144" x2="144" y1="6" y2="108.7754"/><line style="stroke:#C0C0C0;stroke-width:1;" x1="160" x2="160" y1="6" y2="108.7754"/><line style="stroke:#C0C0C0;stroke-width:1;" x1="176" x2="176" y1="6" y2="108.7754"/><line style="stroke:#C0C0C0;stroke-width:1;" x1="192" x2="192" y1="6" y2="108.7754"/><line style="stroke:#C0C0C0;stroke-width:1;" x1="208" x2="208" y1="6" y2="108.7754"/><line style="stroke:#C0C0C0;stroke-width:1;" x1="224" x2="224" y1="6" y2="108.7754"/><line style="stroke:#C0C0C0;stroke-width:1;" x1="240" x2="240" y1="6" y2="108.7754"/><line style="stroke:#C0C0C0;stroke-width:1;" x1="256" x2="256" y1="6" y2="108.7754"/><line style="stroke:#C0C0C0;stroke-width:1;" x1="272" x2="272" y1="6" y2="108.7754"/><line style="stroke:#C0C0C0;stroke-width:1;" x1="288" x2="288" y1="6" y2="108.7754"/><line style="stroke:#C0C0C0;stroke-width:1;" x1="304" x2="304" y1="6" y2="108.7754"/><line style="stroke:#C0C0C0;stroke-width:1;" x1="320" x2="320" y1="6" y2="108.7754"/><line style="stroke:#C0C0C0;stroke-width:1;" x1="336" x2="336" y1="6" y2="108.7754"/><line style="stroke:#C0C0C0;stroke-width:1;" x1="352" x2="352" y1="6" y2="108.7754"/><line style="stroke:#C0C0C0;stroke-width:1;" x1="368" x2="368" y1="6" y2="108.7754"/><line style="stroke:#C0C0C0;stroke-width:1;" x1="384" x2="384" y1="6" y2="108.7754"/><line style="stroke:#C0C0C0;stroke-width:1;" x1="400" x2="400" y1="6" y2="108.7754"/><text fill="#000000" font-family="sans-serif" font-size="10" lengthAdjust="spacing" textLength="6.3232" x="4.8384" y="9.668">1</text><text fill="#000000" font-family="sans-serif" font-size="10" lengthAdjust="spacing" textLength="6.3232" x="20.8384" y="9.668">2</text><text fill="#000000" font-family="sans-serif" font-size="10" lengthAdjust="spacing" textLength="6.3232" x="36.8384" y="9.668">3</text><text fill="#000000" font-family="sans-serif" font-size="10" lengthAdjust="spacing" textLength="6.3232" x="52.8384" y="9.668">4</text><text fill="#000000" font-family="sans-serif" font-size="10" lengthAdjust="spacing" textLength="6.3232" x="68.8384" y="9.668">5</text><text fill="#000000" font-family="sans-serif" font-size="10" lengthAdjust="spacing" textLength="6.3232" x="84.8384" y="9.668">6</text><text fill="#000000" font-family="sans-serif" font-size="10" lengthAdjust="spacing" textLength="6.3232" x="100.8384" y="9.668">7</text><text fill="#000000" font-family="sans-serif" font-size="10" lengthAdjust="spacing" textLength="6.3232" x="116.8384" y="9.668">8</text><text fill="#000000" font-family="sans-serif" font-size="10" lengthAdjust="spacing" textLength="6.3232" x="132.8384" y="9.668">9</text><text fill="#000000" font-family="sans-serif" font-size="10" lengthAdjust="spacing" textLength="12.6465" x="145.6768" y="9.668">10</text><text fill="#000000" font-family="sans-serif" font-size="10" lengthAdjust="spacing" textLength="12.6465" x="161.6768" y="9.668">11</text><text fill="#000000" font-family="sans-serif" font-size="10" lengthAdjust="spacing" textLength="12.6465" x="177.6768" y="9.668">12</text><text fill="#000000" font-family="sans-serif" font-size="10" lengthAdjust="spacing" textLength="12.6465" x="193.6768" y="9.668">13</text><text fill="#000000" font-family="sans-serif" font-size="10" lengthAdjust="spacing" textLength="12.6465" x="209.6768" y="9.668">14</text><text fill="#000000" font-family="sans-serif" font-size="10" lengthAdjust="spacing" textLength="12.6465" x="225.6768" y="9.668">15</text><text fill="#000000" font-family="sans-serif" font-size="10" lengthAdjust="spacing" textLength="12.6465" x="241.6768" y="9.668">16</text><text fill="#000000" font-family="sans-serif" font-size="10" lengthAdjust="spacing" textLength="12.6465" x="257.6768" y="9.668">17</text><text fill="#000000" font-family="sans-serif" font-size="10" lengthAdjust="spacing" textLength="12.6465" x="273.6768" y="9.668">18</text><text fill="#000000" font-family="sans-serif" font-size="10" lengthAdjust="spacing" textLength="12.6465" x="289.6768" y="9.668">19</text><text fill="#000000" font-family="sans-serif" font-size="10" lengthAdjust="spacing" textLength="12.6465" x="305.6768" y="9.668">20</text><text fill="#000000" font-family="sans-serif" font-size="10" lengthAdjust="spacing" textLength="12.6465" x="321.6768" y="9.668">21</text><text fill="#000000" font-family="sans-serif" font-size="10" lengthAdjust="spacing" textLength="12.6465" x="337.6768" y="9.668">22</text><text fill="#000000" font-family="sans-serif" font-size="10" lengthAdjust="spacing" textLength="12.6465" x="353.6768" y="9.668">23</text><text fill="#000000" font-family="sans-serif" font-size="10" lengthAdjust="spacing" textLength="12.6465" x="369.6768" y="9.668">24</text><text fill="#000000" font-family="sans-serif" font-size="10" lengthAdjust="spacing" textLength="12.6465" x="385.6768" y="9.668">25</text><path d="M200,30.9551 L200,41.4326 L253,41.4326" fill="none" style="stroke:#181818;stroke-width:1.5;"/><polygon fill="#181818" points="252,37.4326,256,41.4326,252,45.4326,252,37.4326" style="stroke:#181818;stroke-width:1;"/><path d="M206,24.4775 L216,24.4775 L216,58.3877 L211,58.3877" fill="none" style="stroke:#181818;stroke-width:1.5;"/><polygon fill="#181818" points="212,54.3877,208,58.3877,212,62.3877,212,54.3877" style="stroke:#181818;stroke-width:1;"/><path d="M136,64.8652 L136,75.3428 L131,75.3428" fill="none" style="stroke:#181818;stroke-width:1.5;"/><polygon fill="#181818" points="132,71.3428,128,75.3428,132,79.3428,132,71.3428" style="stroke:#181818;stroke-width:1;"/><path d="M258,41.4326 L232,41.4326 L232,92.2979 L237,92.2979" fill="none" style="stroke:#181818;stroke-width:1.5;"/><polygon fill="#181818" points="236,88.2979,240,92.2979,236,96.2979,236,88.2979" style="stroke:#181818;stroke-width:1;"/><path d="M398,41.4326 L408,41.4326 L408,92.2979 L403,92.2979" fill="none" style="stroke:#181818;stroke-width:1.5;"/><polygon fill="#181818" points="404,88.2979,400,92.2979,404,96.2979,404,88.2979" style="stroke:#181818;stroke-width:1;"/><rect fill="#E6E6FA" height="12.9551" style="stroke:none;stroke-width:1;" width="204" x="2" y="18"/><rect fill="none" height="12.9551" style="stroke:#ADD8E6;stroke-width:1;" width="204" x="2" y="18"/><rect fill="#FF7F50" height="12.9551" style="stroke:none;stroke-width:1;" width="140" x="258" y="34.9551"/><rect fill="none" height="12.9551" style="stroke:#008000;stroke-width:1;" width="140" x="258" y="34.9551"/><rect fill="#E2E2F0" height="12.9551" style="stroke:none;stroke-width:1;" width="76" x="130" y="51.9102"/><rect fill="none" height="12.9551" style="stroke:#181818;stroke-width:1;" width="76" x="130" y="51.9102"/><rect fill="#E2E2F0" height="12.9551" style="stroke:none;stroke-width:1;" width="92" x="34" y="68.8652"/><rect fill="none" height="12.9551" style="stroke:#181818;stroke-width:1;" width="92" x="34" y="68.8652"/><rect fill="#FF7F50" height="12.9551" style="stroke:none;stroke-width:1;" width="156" x="242" y="85.8203"/><rect fill="none" height="12.9551" style="stroke:#008000;stroke-width:1;" width="156" x="242" y="85.8203"/><text fill="#000000" font-family="sans-serif" font-size="11" lengthAdjust="spacing" textLength="90.127" x="6" y="28.6348">Prototype design</text><text fill="#000000" font-family="sans-serif" font-size="11" lengthAdjust="spacing" textLength="78.2515" x="262" y="45.5898">Test prototype</text><text fill="#000000" font-family="sans-serif" font-size="11" lengthAdjust="spacing" textLength="56.3857" x="134" y="62.5449">Write tests</text><text fill="#000000" font-family="sans-serif" font-size="11" lengthAdjust="spacing" textLength="90.9326" x="140" y="79.5">Hire tests writers</text><text fill="#000000" font-family="sans-serif" font-size="11" lengthAdjust="spacing" textLength="135.9316" x="246" y="96.4551">Init and write tests report</text><text fill="#000000" font-family="sans-serif" font-size="10" lengthAdjust="spacing" textLength="6.3232" x="4.8384" y="113.4434">1</text><text fill="#000000" font-family="sans-serif" font-size="10" lengthAdjust="spacing" textLength="6.3232" x="20.8384" y="113.4434">2</text><text fill="#000000" font-family="sans-serif" font-size="10" lengthAdjust="spacing" textLength="6.3232" x="36.8384" y="113.4434">3</text><text fill="#000000" font-family="sans-serif" font-size="10" lengthAdjust="spacing" textLength="6.3232" x="52.8384" y="113.4434">4</text><text fill="#000000" font-family="sans-serif" font-size="10" lengthAdjust="spacing" textLength="6.3232" x="68.8384" y="113.4434">5</text><text fill="#000000" font-family="sans-serif" font-size="10" lengthAdjust="spacing" textLength="6.3232" x="84.8384" y="113.4434">6</text><text fill="#000000" font-family="sans-serif" font-size="10" lengthAdjust="spacing" textLength="6.3232" x="100.8384" y="113.4434">7</text><text fill="#000000" font-family="sans-serif" font-size="10" lengthAdjust="spacing" textLength="6.3232" x="116.8384" y="113.4434">8</text><text fill="#000000" font-family="sans-serif" font-size="10" lengthAdjust="spacing" textLength="6.3232" x="132.8384" y="113.4434">9</text><text fill="#000000" font-family="sans-serif" font-size="10" lengthAdjust="spacing" textLength="12.6465" x="145.6768" y="113.4434">10</text><text fill="#000000" font-family="sans-serif" font-size="10" lengthAdjust="spacing" textLength="12.6465" x="161.6768" y="113.4434">11</text><text fill="#000000" font-family="sans-serif" font-size="10" lengthAdjust="spacing" textLength="12.6465" x="177.6768" y="113.4434">12</text><text fill="#000000" font-family="sans-serif" font-size="10" lengthAdjust="spacing" textLength="12.6465" x="193.6768" y="113.4434">13</text><text fill="#000000" font-family="sans-serif" font-size="10" lengthAdjust="spacing" textLength="12.6465" x="209.6768" y="113.4434">14</text><text fill="#000000" font-family="sans-serif" font-size="10" lengthAdjust="spacing" textLength="12.6465" x="225.6768" y="113.4434">15</text><text fill="#000000" font-family="sans-serif" font-size="10" lengthAdjust="spacing" textLength="12.6465" x="241.6768" y="113.4434">16</text><text fill="#000000" font-family="sans-serif" font-size="10" lengthAdjust="spacing" textLength="12.6465" x="257.6768" y="113.4434">17</text><text fill="#000000" font-family="sans-serif" font-size="10" lengthAdjust="spacing" textLength="12.6465" x="273.6768" y="113.4434">18</text><text fill="#000000" font-family="sans-serif" font-size="10" lengthAdjust="spacing" textLength="12.6465" x="289.6768" y="113.4434">19</text><text fill="#000000" font-family="sans-serif" font-size="10" lengthAdjust="spacing" textLength="12.6465" x="305.6768" y="113.4434">20</text><text fill="#000000" font-family="sans-serif" font-size="10" lengthAdjust="spacing" textLength="12.6465" x="321.6768" y="113.4434">21</text><text fill="#000000" font-family="sans-serif" font-size="10" lengthAdjust="spacing" textLength="12.6465" x="337.6768" y="113.4434">22</text><text fill="#000000" font-family="sans-serif" font-size="10" lengthAdjust="spacing" textLength="12.6465" x="353.6768" y="113.4434">23</text><text fill="#000000" font-family="sans-serif" font-size="10" lengthAdjust="spacing" textLength="12.6465" x="369.6768" y="113.4434">24</text><text fill="#000000" font-family="sans-serif" font-size="10" lengthAdjust="spacing" textLength="12.6465" x="385.6768" y="113.4434">25</text><!--SRC=[xPJFKjj03CRl-nIw0OV4-TDamASCqDAwpZHJ0Xmo74IicEtOknwj72PlZ-pYXfQcVO3sujbTIR_laqRZMH1aoT69GC2oAgZNNipHeqWLuYYg2htNPT5V-p9gOxtCOivO6hDQi1SlkueWes1pTmy51Wam74E6km3eCh01rhxmJ7fqaEAMN4OSfJP_bFEY9hDQKX2eEbJ7E3k4kF2CHNJ5HAwDjYq4w2GtGWnldHq5K66pkcCh1AAIeLEQx9KqHG_oX_gFbb_AuQb1yG_Cz3UOrsfAQAsQrITdfSrxseU1gV8izuUR_KlTonY6ZGjue8qIuDVHTXP-DlasgUbqff_lks1cXxRa_mRy8nkmQFu2D_CKjjgkzGw6_T5WDEcFZk_KPO8E1gSm6CNZIJoUGdAzX2PyOewl5Ya4N_DQnsY3i7seHUjFJ89RXA-r4rjI35ygSidbv-u1thkjPUzAScAIs_a-OVgkTwuZk2PM9t0xDvUqmReGhLZxpBeyXflbXzwfIT7bDURA_eRcmYkNTp4aYsS0]--></g></svg>