<svg xmlns="http://www.w3.org/2000/svg" xmlns:xlink="http://www.w3.org/1999/xlink" contentStyleType="text/css" data-diagram-type="STATE" height="327.3251px" preserveAspectRatio="none" style="width:350px;height:327px;background:#FFFFFF;" version="1.1" viewBox="0 0 350 327" width="350.4819px" zoomAndPan="magnify"><defs/><g><text fill="#FF0000" font-family="sans-serif" font-size="6.2586" lengthAdjust="spacing" textLength="114.354" x="225.5295" y="6.0508">Yui Semba - &#12489;&#12461;&#12517;&#12513;&#12531;&#12488;&#31649;&#29702;&#12471;&#12473;&#12486;&#12512;</text><!--cluster NotShooting--><g class="cluster" data-entity="NotShooting" data-source-line="10" data-uid="ent0002" id="cluster_NotShooting"><path d="M283.9717,107.1895 L334.6664,107.1895 A7.8233,7.8233 0 0 1 342.4897,115.0127 L342.4897,120.6381 L276.1485,120.6381 L276.1485,115.0127 A7.8233,7.8233 0 0 1 283.9717,107.1895" fill="#F1F1F1" style="stroke:#F1F1F1;stroke-width:0.6259;"/><rect fill="none" height="204.9631" rx="7.8233" ry="7.8233" style="stroke:#181818;stroke-width:0.3129;" width="66.3412" x="276.1485" y="107.1895"/><line style="stroke:#181818;stroke-width:0.3129;" x1="276.1485" x2="342.4897" y1="120.6381" y2="120.6381"/><text fill="#000000" font-family="sans-serif" font-size="8.762" lengthAdjust="spacing" textLength="52.7648" x="282.9367" y="118.164">NotShooting</text></g><ellipse cx="306.8156" cy="140.3601" fill="#222222" rx="6.2586" ry="6.2586" style="stroke:#222222;stroke-width:0.6259;"/><g id="NotShooting.Idle"><rect fill="#F1F1F1" height="31.293" rx="7.8233" ry="7.8233" style="stroke:#181818;stroke-width:0.3129;" width="31.293" x="291.1754" y="265.8389"/><line style="stroke:#181818;stroke-width:0.3129;" x1="291.1754" x2="322.4684" y1="282.4168" y2="282.4168"/><text fill="#000000" font-family="sans-serif" font-size="8.762" lengthAdjust="spacing" textLength="15.4534" x="299.0952" y="277.4393">Idle</text></g><path d="M12.2043,62.4467 L253.4548,62.4467 A7.8233,7.8233 0 0 1 261.278,70.27 L261.278,79.0247 L4.381,79.0247 L4.381,70.27 A7.8233,7.8233 0 0 1 12.2043,62.4467" fill="#F1F1F1" style="stroke:#F1F1F1;stroke-width:0.6259;"/><rect fill="none" height="155.8257" rx="7.8233" ry="7.8233" style="stroke:#181818;stroke-width:0.3129;" width="256.897" x="4.381" y="62.4467"/><line style="stroke:#181818;stroke-width:0.3129;" x1="4.381" x2="261.278" y1="79.0247" y2="79.0247"/><text fill="#000000" font-family="sans-serif" font-size="8.762" lengthAdjust="spacing" textLength="50.5572" x="107.5509" y="74.0471">Configuring</text><path d="M72.7751,86.535 L159.392,86.535 A7.8233,7.8233 0 0 1 167.2152,94.3583 L167.2152,103.113 L64.9518,103.113 L64.9518,94.3583 A7.8233,7.8233 0 0 1 72.7751,86.535" fill="#F1F1F1" style="stroke:#F1F1F1;stroke-width:0.6259;"/><rect fill="none" height="61.6399" rx="7.8233" ry="7.8233" style="stroke:#181818;stroke-width:0.3129;" width="102.2634" x="64.9518" y="86.535"/><line style="stroke:#181818;stroke-width:0.3129;" x1="64.9518" x2="167.2152" y1="103.113" y2="103.113"/><text fill="#000000" font-family="sans-serif" font-size="8.762" lengthAdjust="spacing" textLength="73.5362" x="79.3154" y="98.1354">NewValuePreview</text><g id="Configuring.NewValuePreview.State1"><rect fill="#F1F1F1" height="31.293" rx="7.8233" ry="7.8233" style="stroke:#181818;stroke-width:0.3129;" width="39.0515" x="72.4621" y="110.6233"/><line style="stroke:#181818;stroke-width:0.3129;" x1="72.4621" x2="111.5136" y1="127.2013" y2="127.2013"/><text fill="#000000" font-family="sans-serif" font-size="8.762" lengthAdjust="spacing" textLength="26.5343" x="78.7207" y="122.2237">State1</text></g><g id="Configuring.NewValuePreview.State2"><rect fill="#F1F1F1" height="31.293" rx="7.8233" ry="7.8233" style="stroke:#181818;stroke-width:0.3129;" width="39.0515" x="122.531" y="110.6233"/><line style="stroke:#181818;stroke-width:0.3129;" x1="122.531" x2="161.5825" y1="127.2013" y2="127.2013"/><text fill="#000000" font-family="sans-serif" font-size="8.762" lengthAdjust="spacing" textLength="26.5343" x="128.7896" y="122.2237">State2</text></g><!--link State1 to State2--><g class="link" data-entity-1="State1" data-entity-2="State2" data-source-line="23" data-uid="lnk17" id="link_State1_State2"><path d="M111.7411,126.2698 C115.296,126.2698 115.0895,126.2698 118.6444,126.2698" fill="none" id="State1-to-State2" style="stroke:#666666;stroke-width:0.6259;"/><polygon fill="#666666" points="122.3995,126.2698,116.7668,123.7664,119.2702,126.2698,116.7668,128.7733,122.3995,126.2698" style="stroke:#666666;stroke-width:0.6259;"/></g><ellipse cx="250.0125" cy="117.3586" fill="#222222" rx="6.2586" ry="6.2586" style="stroke:#222222;stroke-width:0.6259;"/><g id="Configuring.NewValueSelection"><rect fill="#F1F1F1" height="31.293" rx="7.8233" ry="7.8233" style="stroke:#181818;stroke-width:0.3129;" width="92.1757" x="110.0513" y="180.7208"/><line style="stroke:#181818;stroke-width:0.3129;" x1="110.0513" x2="202.227" y1="197.2987" y2="197.2987"/><text fill="#000000" font-family="sans-serif" font-size="8.762" lengthAdjust="spacing" textLength="79.6585" x="116.3099" y="192.3212">NewValueSelection</text></g><!--link *start*Configuring to NewValueSelection--><g class="link" data-entity-1="*start*Configuring" data-entity-2="NewValueSelection" data-source-line="17" data-uid="lnk11" id="link_*start*Configuring_NewValueSelection"><path d="M249.4993,123.7862 C248.2601,134.3195 244.1732,156.694 231.2367,169.4553 C223.3258,177.266 216.4848,181.4682 205.9954,185.336" fill="none" id="*start*Configuring-to-NewValueSelection" style="stroke:#666666;stroke-width:0.6259;"/><polygon fill="#666666" points="202.4721,186.6351,208.6232,187.0353,205.4082,185.5525,206.891,182.3376,202.4721,186.6351" style="stroke:#666666;stroke-width:0.6259;"/></g><!--link NewValueSelection to NewValuePreview--><g class="link" data-entity-1="NewValueSelection" data-entity-2="NewValuePreview" data-source-line="18" data-uid="lnk12" id="link_NewValueSelection_NewValuePreview"><path d="M176.5866,180.5643 C182.526,174.2619 186.4564,166.7203 182.4196,159.4415 C178.702,152.7323 176.3041,149.336 170.2833,144.423" fill="none" id="NewValueSelection-to-NewValuePreview" style="stroke:#666666;stroke-width:0.6259;"/><polygon fill="#666666" points="167.3739,142.0488,170.1553,147.5496,169.7984,144.0273,173.3208,143.6704,167.3739,142.0488" style="stroke:#666666;stroke-width:0.6259;"/><text fill="#666666" font-family="sans-serif" font-size="7.5103" lengthAdjust="spacing" textLength="43.5511" x="184.6977" y="167.3283">EvNewValue</text></g><!--link NewValuePreview to NewValueSelection--><g class="link" data-entity-1="NewValuePreview" data-entity-2="NewValueSelection" data-source-line="19" data-uid="lnk13" id="link_NewValuePreview_NewValueSelection"><path d="M64.7328,129.056 C36.9946,137.43 11.2655,150.7233 26.5803,169.4553 C37.076,182.2917 73.2647,188.6242 106.0535,192.0414" fill="none" id="NewValuePreview-to-NewValueSelection" style="stroke:#666666;stroke-width:0.6259;"/><polygon fill="#666666" points="109.7885,192.4306,104.4456,189.3568,106.676,192.1062,103.9266,194.3367,109.7885,192.4306" style="stroke:#666666;stroke-width:0.6259;"/><text fill="#666666" font-family="sans-serif" font-size="7.5103" lengthAdjust="spacing" textLength="74.5202" x="27.2062" y="167.3283">EvNewValueRejected</text></g><!--link NewValuePreview to NewValueSelection--><g class="link" data-entity-1="NewValuePreview" data-entity-2="NewValueSelection" data-source-line="20" data-uid="lnk14" id="link_NewValuePreview_NewValueSelection"><path d="M109.7321,148.37 C109.5944,155.6363 110.696,163.1153 114.2008,169.4553 C116.5728,173.7424 117.0594,175.0513 120.9022,178.1806" fill="none" id="NewValuePreview-to-NewValueSelection-1" style="stroke:#666666;stroke-width:0.6259;"/><polygon fill="#666666" points="123.814,180.5518,121.0271,175.0538,121.3875,178.5758,117.8655,178.9362,123.814,180.5518" style="stroke:#666666;stroke-width:0.6259;"/><text fill="#666666" font-family="sans-serif" font-size="7.5103" lengthAdjust="spacing" textLength="64.5419" x="114.8266" y="167.3283">EvNewValueSaved</text></g><ellipse cx="337.4828" cy="18.0106" fill="#222222" rx="6.2586" ry="6.2586" style="stroke:#222222;stroke-width:0.6259;"/><!--link *start* to NotShooting--><g class="link" data-entity-1="*start*" data-entity-2="NotShooting" data-source-line="8" data-uid="lnk3" id="link_*start*_NotShooting"><path d="M337.4828,24.4757 C337.4828,36.3827 337.4828,64.4901 337.4828,89.9666 C337.4828,93.1511 337.4828,96.2946 337.4828,99.3601 C337.4828,100.8929 337.4828,102.4062 337.4828,103.8955 C337.4828,104.6401 337.4828,105.3787 337.4828,106.1107 C337.4828,106.2937 337.4828,102.7211 337.4828,102.9033" fill="none" id="*start*-to-NotShooting" style="stroke:#666666;stroke-width:0.6259;"/><polygon fill="#666666" points="337.4828,106.6584,339.9862,101.0257,337.4828,103.5291,334.9793,101.0257,337.4828,106.6584" style="stroke:#666666;stroke-width:0.6259;"/></g><!--link *start*NotShooting to Idle--><g class="link" data-entity-1="*start*NotShooting" data-entity-2="Idle" data-source-line="11" data-uid="lnk6" id="link_*start*NotShooting_Idle"><path d="M306.8156,146.819 C306.8156,167.0843 306.8156,231.1349 306.8156,261.8083" fill="none" id="*start*NotShooting-to-Idle" style="stroke:#666666;stroke-width:0.6259;"/><polygon fill="#666666" points="306.8156,265.5635,309.3191,259.9307,306.8156,262.4342,304.3122,259.9307,306.8156,265.5635" style="stroke:#666666;stroke-width:0.6259;"/></g><!--link Idle to Configuring--><g class="link" data-entity-1="Idle" data-entity-2="Configuring" data-source-line="12" data-uid="lnk7" id="link_Idle_Configuring"><path d="M290.9,268.0607 C276.2549,256.2882 256.1563,240.1279 232.167,220.8451" fill="none" id="Idle-to-Configuring" style="stroke:#666666;stroke-width:0.6259;"/><polygon fill="#666666" points="229.2402,218.4925,232.0621,223.9727,231.6792,220.453,235.1989,220.0702,229.2402,218.4925" style="stroke:#666666;stroke-width:0.6259;"/><text fill="#666666" font-family="sans-serif" font-size="7.5103" lengthAdjust="spacing" textLength="32.0436" x="265.3962" y="244.9361">EvConfig</text></g><!--link Configuring to Idle--><g class="link" data-entity-1="Configuring" data-entity-2="Idle" data-source-line="13" data-uid="lnk8" id="link_Configuring_Idle"><path d="M186.2248,218.4925 C195.7316,229.007 206.1898,238.9519 217.3176,247.0631 C240.0739,263.6421 268.2762,272.214 287.2085,276.7014" fill="none" id="Configuring-to-Idle" style="stroke:#666666;stroke-width:0.6259;"/><polygon fill="#666666" points="290.8624,277.5675,285.9589,273.8324,287.8175,276.8458,284.8042,278.7043,290.8624,277.5675" style="stroke:#666666;stroke-width:0.6259;"/><text fill="#666666" font-family="sans-serif" font-size="7.5103" lengthAdjust="spacing" textLength="32.0436" x="217.9434" y="244.9361">EvConfig</text></g><text fill="#888888" font-family="sans-serif" font-size="6.2586" font-weight="bold" lengthAdjust="spacing" textLength="140.1799" x="201.6839" y="321.3327">Copyright &#169; Yui Semba. All rights reserved.</text><!--SRC=[dL2z3e8m4DvvYdCYCH7yYOk3Yt5m8KOI5-FGm2arbHfe8SJmxXvWaw8kqgMzxpSztuN9NmTStndnD18wHl0yNx1AQkKzz5tqy5nL0ZlO7zBXv14J28lb54eUgyGvZSyKiuP0gZ2HKl7qIYB55DeGF1q08zt50cbihdRUoFJ2hpfhT2lO5jrC2fimHbjHcoPRQ3S5M1wPq1YYm4XncHBtXVMK-mmBZcNROZ3BPEYVuJtJ0M-4OZp87BA2d6HzB_8ZeFaYdR0XPq1fxMjEA6saVW40]--></g></svg>