<svg xmlns="http://www.w3.org/2000/svg" xmlns:xlink="http://www.w3.org/1999/xlink" contentStyleType="text/css" data-diagram-type="DESCRIPTION" height="551px" preserveAspectRatio="none" style="width:680px;height:551px;background:#FFFFFF;" version="1.1" viewBox="0 0 680 551" width="680px" zoomAndPan="magnify"><defs/><g><text fill="#FF0000" font-family="sans-serif" font-size="10" lengthAdjust="spacing" textLength="182.7148" x="481.0213" y="9.668">Yui Semba - &#12489;&#12461;&#12517;&#12513;&#12531;&#12488;&#31649;&#29702;&#12471;&#12473;&#12486;&#12512;</text><!--entity actor--><g class="entity" data-entity="actor" data-source-line="7" data-uid="ent0002" id="entity_actor"><ellipse cx="55.4034" cy="26.7773" fill="#F1F1F1" rx="8" ry="8" style="stroke:#181818;stroke-width:0.5;"/><path d="M55.4034,34.7773 L55.4034,61.7773 M42.4034,42.7773 L68.4034,42.7773 M55.4034,61.7773 L42.4034,76.7773 M55.4034,61.7773 L68.4034,76.7773" fill="none" style="stroke:#181818;stroke-width:0.5;"/><text fill="#000000" font-family="sans-serif" font-size="14" lengthAdjust="spacing" textLength="34.4668" x="38.17" y="91.8125">actor</text></g><!--entity actor/--><g class="entity" data-entity="actor/" data-source-line="8" data-uid="ent0003" id="entity_actor/"><ellipse cx="128.4043" cy="26.7773" fill="#F1F1F1" rx="8" ry="8" style="stroke:#181818;stroke-width:0.5;"/><line style="stroke:#181818;stroke-width:0.5;" x1="126.4605" x2="136.1645" y1="34.5376" y2="24.8335"/><path d="M128.4043,34.7773 L128.4043,61.7773 M115.4043,42.7773 L141.4043,42.7773 M128.4043,61.7773 L115.4043,76.7773 M128.4043,61.7773 L141.4043,76.7773" fill="none" style="stroke:#181818;stroke-width:0.5;"/><text fill="#000000" font-family="sans-serif" font-size="14" lengthAdjust="spacing" textLength="41.8086" x="107.5" y="91.8125">actor/</text></g><!--entity agent--><g class="entity" data-entity="agent" data-source-line="9" data-uid="ent0004" id="entity_agent"><rect fill="#F1F1F1" height="36.4883" rx="2.5" ry="2.5" style="stroke:#181818;stroke-width:0.5;" width="58.1855" x="184.31" y="38.2773"/><text fill="#000000" font-family="sans-serif" font-size="14" lengthAdjust="spacing" textLength="38.1855" x="194.31" y="61.8125">agent</text></g><!--entity artifact--><g class="entity" data-entity="artifact" data-source-line="10" data-uid="ent0005" id="entity_artifact"><rect fill="#F1F1F1" height="39.4883" rx="2.5" ry="2.5" style="stroke:#181818;stroke-width:0.5;" width="78.0293" x="277.39" y="36.7773"/><polygon fill="#F1F1F1" points="338.4193,41.7773,338.4193,55.7773,350.4193,55.7773,350.4193,47.7773,344.4193,41.7773,338.4193,41.7773" style="stroke:#181818;stroke-width:0.5;"/><line style="stroke:#181818;stroke-width:0.5;" x1="344.4193" x2="344.4193" y1="41.7773" y2="47.7773"/><line style="stroke:#181818;stroke-width:0.5;" x1="350.4193" x2="344.4193" y1="47.7773" y2="47.7773"/><text fill="#000000" font-family="sans-serif" font-size="14" lengthAdjust="spacing" textLength="48.0293" x="287.39" y="63.3125">artifact</text></g><!--entity boundary--><g class="entity" data-entity="boundary" data-source-line="11" data-uid="ent0006" id="entity_boundary"><path d="M401.907,36.2773 L401.907,60.2773 M401.907,48.2773 L418.907,48.2773" fill="none" style="stroke:#181818;stroke-width:0.5;"/><ellipse cx="430.907" cy="48.2773" fill="#F1F1F1" rx="12" ry="12" style="stroke:#181818;stroke-width:0.5;"/><text fill="#000000" font-family="sans-serif" font-size="14" lengthAdjust="spacing" textLength="64.374" x="390.22" y="77.8125">boundary</text></g><!--entity card--><g class="entity" data-entity="card" data-source-line="12" data-uid="ent0007" id="entity_card"><rect fill="#F1F1F1" height="22.4883" rx="2.5" ry="2.5" style="stroke:#181818;stroke-width:0.5;" width="49.4424" x="489.68" y="45.2773"/><text fill="#000000" font-family="sans-serif" font-size="14" lengthAdjust="spacing" textLength="29.4424" x="499.68" y="61.8125">card</text></g><!--entity circle--><g class="entity" data-entity="circle" data-source-line="13" data-uid="ent0008" id="entity_circle"><ellipse cx="55.4" cy="183.7673" fill="#F1F1F1" rx="8" ry="8" style="stroke:#181818;stroke-width:0.5;"/><text fill="#000000" font-family="sans-serif" font-size="14" lengthAdjust="spacing" textLength="35.9639" x="37.4181" y="214.3025">circle</text></g><!--entity cloud--><g class="entity" data-entity="cloud" data-source-line="14" data-uid="ent0009" id="entity_cloud"><path d="M125.7639,168.8938 C129.3784,161.4628 135.0548,161.5864 139.5767,167.9877 C142.8394,161.2978 148.4032,160.3053 152.5302,167.1612 C156.4331,160.9648 161.4328,162.6294 164.533,167.9946 C168.3925,161.4912 174.991,162.9935 177.9353,168.977 C186.8967,172.208 189.283,178.9364 181.7321,185.8771 C186.3599,192.515 186.2534,197.0001 177.3924,199.2657 C176.0319,205.3888 170.7883,207.6785 166.2597,202.344 C162.2278,209.8261 157.4722,210.29 151.5786,204.3857 C146.9694,209.2853 141.7809,207.5453 139.3518,201.866 C134.905,207.5174 129.8101,207.475 126.6974,200.5261 C117.4247,199.6517 114.4241,193.3792 119.7025,185.6587 C113.5817,177.0944 115.5812,171.5636 125.7639,168.8938" fill="#F1F1F1" style="stroke:#181818;stroke-width:0.5;"/><text fill="#000000" font-family="sans-serif" font-size="14" lengthAdjust="spacing" textLength="37.3174" x="132.75" y="189.0625">cloud</text></g><!--entity collections--><g class="entity" data-entity="collections" data-source-line="15" data-uid="ent0010" id="entity_collections"><rect fill="#F1F1F1" height="32.4883" rx="2.5" ry="2.5" style="stroke:#181818;stroke-width:0.5;" width="88.543" x="224.13" y="169.5273"/><rect fill="#F1F1F1" height="32.4883" rx="2.5" ry="2.5" style="stroke:#181818;stroke-width:0.5;" width="88.543" x="220.13" y="165.5273"/><text fill="#000000" font-family="sans-serif" font-size="14" lengthAdjust="spacing" textLength="72.543" x="228.13" y="187.0625">collections</text></g><!--entity component--><g class="entity" data-entity="component" data-source-line="16" data-uid="ent0011" id="entity_component"><rect fill="#F1F1F1" height="46.4883" rx="2.5" ry="2.5" style="stroke:#181818;stroke-width:0.5;" width="116.665" x="348.07" y="160.5273"/><rect fill="#F1F1F1" height="10" style="stroke:#181818;stroke-width:0.5;" width="15" x="444.735" y="165.5273"/><rect fill="#F1F1F1" height="2" style="stroke:#181818;stroke-width:0.5;" width="4" x="442.735" y="167.5273"/><rect fill="#F1F1F1" height="2" style="stroke:#181818;stroke-width:0.5;" width="4" x="442.735" y="171.5273"/><text fill="#000000" font-family="sans-serif" font-size="14" lengthAdjust="spacing" textLength="76.665" x="363.07" y="194.0625">component</text></g><!--entity control--><g class="entity" data-entity="control" data-source-line="17" data-uid="ent0012" id="entity_control"><ellipse cx="523.4052" cy="175.5273" fill="#F1F1F1" rx="12" ry="12" style="stroke:#181818;stroke-width:0.5;"/><polygon fill="#181818" points="519.4052,163.5273,525.4052,158.5273,523.4052,163.5273,525.4052,168.5273,519.4052,163.5273" style="stroke:#181818;stroke-width:1;"/><text fill="#000000" font-family="sans-serif" font-size="14" lengthAdjust="spacing" textLength="48.0703" x="499.37" y="205.0625">control</text></g><!--entity database--><g class="entity" data-entity="database" data-source-line="18" data-uid="ent0013" id="entity_database"><path d="M582.91,171.0273 C582.91,161.0273 623.4051,161.0273 623.4051,161.0273 C623.4051,161.0273 663.9002,161.0273 663.9002,171.0273 L663.9002,196.5156 C663.9002,206.5156 623.4051,206.5156 623.4051,206.5156 C623.4051,206.5156 582.91,206.5156 582.91,196.5156 L582.91,171.0273" fill="#F1F1F1" style="stroke:#181818;stroke-width:0.5;"/><path d="M582.91,171.0273 C582.91,181.0273 623.4051,181.0273 623.4051,181.0273 C623.4051,181.0273 663.9002,181.0273 663.9002,171.0273" fill="none" style="stroke:#181818;stroke-width:0.5;"/><text fill="#000000" font-family="sans-serif" font-size="14" lengthAdjust="spacing" textLength="60.9902" x="592.91" y="198.5625">database</text></g><!--entity entity--><g class="entity" data-entity="entity" data-source-line="19" data-uid="ent0014" id="entity_entity"><ellipse cx="55.4011" cy="293.5273" fill="#F1F1F1" rx="12" ry="12" style="stroke:#181818;stroke-width:0.5;"/><line style="stroke:#181818;stroke-width:0.5;" x1="43.4011" x2="67.4011" y1="307.5273" y2="307.5273"/><text fill="#000000" font-family="sans-serif" font-size="14" lengthAdjust="spacing" textLength="38.3223" x="36.24" y="323.0625">entity</text></g><!--entity file--><g class="entity" data-entity="file" data-source-line="20" data-uid="ent0015" id="entity_file"><path d="M109.88,286.0273 L109.88,317.5156 A2.5,2.5 0 0 0 112.38,320.0156 L148.421,320.0156 A2.5,2.5 0 0 0 150.921,317.5156 L150.921,293.5273 L140.921,283.5273 L112.38,283.5273 A2.5,2.5 0 0 0 109.88,286.0273" fill="#F1F1F1" style="stroke:#181818;stroke-width:0.5;"/><path d="M140.921,283.5273 L140.921,291.0273 A2.5,2.5 0 0 0 143.421,293.5273 L150.921,293.5273" fill="#F1F1F1" style="stroke:#181818;stroke-width:0.5;"/><text fill="#000000" font-family="sans-serif" font-size="14" lengthAdjust="spacing" textLength="21.041" x="119.88" y="307.0625">file</text></g><!--entity folder--><g class="entity" data-entity="folder" data-source-line="21" data-uid="ent0016" id="entity_folder"><path d="M188.84,274.5273 L229.84,274.5273 A3.75,3.75 0 0 1 232.34,277.0273 L239.34,295.5273 L253.9738,295.5273 A2.5,2.5 0 0 1 256.4738,298.0273 L256.4738,326.5156 A2.5,2.5 0 0 1 253.9738,329.0156 L188.84,329.0156 A2.5,2.5 0 0 1 186.34,326.5156 L186.34,277.0273 A2.5,2.5 0 0 1 188.84,274.5273" fill="#F1F1F1" style="stroke:#181818;stroke-width:0.5;"/><line style="stroke:#181818;stroke-width:0.5;" x1="186.34" x2="239.34" y1="295.5273" y2="295.5273"/><text fill="#000000" font-family="sans-serif" font-size="14" lengthAdjust="spacing" textLength="40.1338" x="196.34" y="316.0625">folder</text></g><!--entity frame--><g class="entity" data-entity="frame" data-source-line="22" data-uid="ent0017" id="entity_frame"><rect fill="#F1F1F1" height="46.4883" rx="2.5" ry="2.5" style="stroke:#181818;stroke-width:0.5;" width="79.4775" x="291.67" y="278.5273"/><path d="M318.1625,278.5273 L318.1625,283.5273 L311.1625,290.5273 L291.67,290.5273" fill="none" style="stroke:#181818;stroke-width:0.5;"/><text fill="#000000" font-family="sans-serif" font-size="14" lengthAdjust="spacing" textLength="39.4775" x="306.67" y="312.0625">frame</text></g><!--entity interface--><g class="entity" data-entity="interface" data-source-line="23" data-uid="ent0018" id="entity_interface"><ellipse cx="443.4" cy="301.7673" fill="#F1F1F1" rx="8" ry="8" style="stroke:#181818;stroke-width:0.5;"/><text fill="#000000" font-family="sans-serif" font-size="14" lengthAdjust="spacing" textLength="59.3496" x="413.7252" y="332.3025">interface</text></g><!--entity label--><g class="entity" data-entity="label" data-source-line="24" data-uid="ent0019" id="entity_label"><text fill="#000000" font-family="sans-serif" font-size="14" lengthAdjust="spacing" textLength="32.4365" x="525.19" y="307.0625">label</text></g><!--entity node--><g class="entity" data-entity="node" data-source-line="25" data-uid="ent0020" id="entity_node"><polygon fill="#F1F1F1" points="18.45,400.7673,28.45,390.7673,92.3494,390.7673,92.3494,427.2556,82.3494,437.2556,18.45,437.2556,18.45,400.7673" style="stroke:#181818;stroke-width:0.5;"/><line style="stroke:#181818;stroke-width:0.5;" x1="82.3494" x2="92.3494" y1="400.7673" y2="390.7673"/><line style="stroke:#181818;stroke-width:0.5;" x1="18.45" x2="82.3494" y1="400.7673" y2="400.7673"/><line style="stroke:#181818;stroke-width:0.5;" x1="82.3494" x2="82.3494" y1="400.7673" y2="437.2556"/><text fill="#000000" font-family="sans-serif" font-size="14" lengthAdjust="spacing" textLength="33.8994" x="33.45" y="424.3025">node</text></g><!--entity package--><g class="entity" data-entity="package" data-source-line="26" data-uid="ent0021" id="entity_package"><path d="M130.16,394.2673 L202.6463,394.2673 A3.75,3.75 0 0 1 205.1463,396.7673 L212.1463,416.7556 L226.6463,416.7556 A2.5,2.5 0 0 1 229.1463,419.2556 L229.1463,431.2556 A2.5,2.5 0 0 1 226.6463,433.7556 L130.16,433.7556 A2.5,2.5 0 0 1 127.66,431.2556 L127.66,396.7673 A2.5,2.5 0 0 1 130.16,394.2673" fill="#F1F1F1" style="stroke:#181818;stroke-width:0.5;"/><line style="stroke:#181818;stroke-width:0.5;" x1="127.66" x2="212.1463" y1="416.7556" y2="416.7556"/><text fill="#000000" font-family="sans-serif" font-size="14" font-weight="bold" lengthAdjust="spacing" textLength="59.4863" x="137.66" y="410.8025">package</text></g><!--entity queue--><g class="entity" data-entity="queue" data-source-line="27" data-uid="ent0022" id="entity_queue"><path d="M269.51,400.7673 L321.2981,400.7673 C326.2981,400.7673 326.2981,414.0115 326.2981,414.0115 C326.2981,414.0115 326.2981,427.2556 321.2981,427.2556 L269.51,427.2556 C264.51,427.2556 264.51,414.0115 264.51,414.0115 C264.51,414.0115 264.51,400.7673 269.51,400.7673" fill="#F1F1F1" style="stroke:#181818;stroke-width:0.5;"/><path d="M321.2981,400.7673 C316.2981,400.7673 316.2981,414.0115 316.2981,414.0115 C316.2981,427.2556 321.2981,427.2556 321.2981,427.2556" fill="none" style="stroke:#181818;stroke-width:0.5;"/><text fill="#000000" font-family="sans-serif" font-size="14" lengthAdjust="spacing" textLength="41.7881" x="269.51" y="419.3025">queue</text></g><!--entity rectangle--><g class="entity" data-entity="rectangle" data-source-line="28" data-uid="ent0023" id="entity_rectangle"><rect fill="#F1F1F1" height="36.4883" rx="2.5" ry="2.5" style="stroke:#181818;stroke-width:0.5;" width="82.9316" x="360.94" y="395.7673"/><text fill="#000000" font-family="sans-serif" font-size="14" lengthAdjust="spacing" textLength="62.9316" x="370.94" y="419.3025">rectangle</text></g><!--entity stack--><g class="entity" data-entity="stack" data-source-line="29" data-uid="ent0024" id="entity_stack"><rect fill="#F1F1F1" height="36.4883" rx="2.5" ry="2.5" style="stroke:none;stroke-width:0.5;" width="55.458" x="493.68" y="395.7673"/><path d="M478.68,395.7673 L491.18,395.7673 A2.5,2.5 0 0 1 493.68,398.2673 L493.68,429.7556 A2.5,2.5 0 0 0 496.18,432.2556 L546.638,432.2556 A2.5,2.5 0 0 0 549.138,429.7556 L549.138,398.2673 A2.5,2.5 0 0 1 551.638,395.7673 L564.138,395.7673" fill="none" style="stroke:#181818;stroke-width:0.5;"/><text fill="#000000" font-family="sans-serif" font-size="14" lengthAdjust="spacing" textLength="35.458" x="503.68" y="419.3025">stack</text></g><!--entity storage--><g class="entity" data-entity="storage" data-source-line="30" data-uid="ent0025" id="entity_storage"><rect fill="#F1F1F1" height="36.4883" rx="35" ry="35" style="stroke:#181818;stroke-width:0.5;" width="70.9619" x="598.92" y="395.7673"/><text fill="#000000" font-family="sans-serif" font-size="14" lengthAdjust="spacing" textLength="50.9619" x="608.92" y="419.3025">storage</text></g><g class="entity" data-entity="usecase" data-source-line="31" data-uid="ent0026" id="entity_usecase"><ellipse cx="55.4043" cy="511.9951" fill="#F1F1F1" rx="49.4043" ry="14.6878" style="stroke:#181818;stroke-width:0.5;"/><text fill="#000000" font-family="sans-serif" font-size="14" lengthAdjust="spacing" textLength="53.4639" x="26.3703" y="515.866">usecase</text></g><g class="entity" data-entity="usecase/" data-source-line="32" data-uid="ent0027" id="entity_usecase/"><ellipse cx="194.4049" cy="512.0019" fill="#F1F1F1" rx="54.8149" ry="14.7345" style="stroke:#181818;stroke-width:0.5;"/><text fill="#000000" font-family="sans-serif" font-size="14" lengthAdjust="spacing" textLength="60.8057" x="161.0021" y="516.0194">usecase/</text></g><line style="stroke:#181818;stroke-width:0.5;" x1="244.8508" x2="228.6723" y1="506.8654" y2="523.0439"/><text fill="#888888" font-family="sans-serif" font-size="10" font-weight="bold" lengthAdjust="spacing" textLength="223.9795" x="442.9207" y="541.4043">Copyright &#169; Yui Semba. All rights reserved.</text><!--SRC=[dP0nSeGm34LxdKAXsIfm9c74ZcU5HOHTSFl869YatALu_o6PaV3mmE-t7dmCy1LJa38nzlqWj6l9_LeM-LVVyYxSoiCdCu12LiE3pGViMdP0JquP3m9PZhCty18OjQI9RCTB891DM04XMX365X14YpSg8QW8XnmrRVZ7lRwickgysxoMigdWcJ1Hff4snal0JyMyOmkOey-iW5bbOiCMC1ijtgY4c3ARxyzu6mYDB7WGalh5Li1AuUN_ZcV2J-72U13CrwRqz76tmPRz81vqLwlVdWbbur0NF_Dwzxk-hFi5]--></g></svg>