<svg xmlns="http://www.w3.org/2000/svg" xmlns:xlink="http://www.w3.org/1999/xlink" contentStyleType="text/css" data-diagram-type="ACTIVITY" height="934px" preserveAspectRatio="none" style="width:448px;height:934px;background:#FFFFFF;" version="1.1" viewBox="0 0 448 934" width="448px" zoomAndPan="magnify"><defs/><g><text fill="#FF0000" font-family="sans-serif" font-size="10" lengthAdjust="spacing" textLength="182.7148" x="249.4102" y="19.668">Yui Semba - &#12489;&#12461;&#12517;&#12513;&#12531;&#12488;&#31649;&#29702;&#12471;&#12473;&#12486;&#12512;</text><ellipse cx="177.6853" cy="32.7773" fill="#222222" rx="10" ry="10" style="stroke:#222222;stroke-width:1;"/><rect fill="#F1F1F1" height="34.1328" rx="12.5" ry="12.5" style="stroke:#181818;stroke-width:0.5;" width="184.707" x="85.3318" y="62.7773"/><text fill="#000000" font-family="sans-serif" font-size="12" lengthAdjust="spacing" textLength="164.707" x="95.3318" y="84.3789">ClickServlet.handleRequest()</text><rect fill="#F1F1F1" height="34.1328" rx="12.5" ry="12.5" style="stroke:#181818;stroke-width:0.5;" width="75.5234" x="139.9236" y="116.9102"/><text fill="#000000" font-family="sans-serif" font-size="12" lengthAdjust="spacing" textLength="23.3789" x="149.9236" y="138.5117">new</text><text fill="#000000" font-family="sans-serif" font-size="12" lengthAdjust="spacing" textLength="3.7969" x="173.3025" y="138.5117">&#160;</text><text fill="#000000" font-family="sans-serif" font-size="12" lengthAdjust="spacing" textLength="28.3477" x="177.0994" y="138.5117">page</text><rect fill="#F1F1F1" height="34.1328" rx="12.5" ry="12.5" style="stroke:#181818;stroke-width:0.5;" width="92.709" x="131.3308" y="220.1094"/><text fill="#000000" font-family="sans-serif" font-size="12" lengthAdjust="spacing" textLength="72.709" x="141.3308" y="241.7109">Page.onInit()</text><rect fill="#F1F1F1" height="34.1328" rx="12.5" ry="12.5" style="stroke:#181818;stroke-width:0.5;" width="115.0977" x="120.1365" y="323.3086"/><text fill="#000000" font-family="sans-serif" font-size="12" lengthAdjust="spacing" textLength="43.9805" x="130.1365" y="344.9102">Process</text><text fill="#000000" font-family="sans-serif" font-size="12" lengthAdjust="spacing" textLength="3.7969" x="174.1169" y="344.9102">&#160;</text><text fill="#000000" font-family="sans-serif" font-size="12" lengthAdjust="spacing" textLength="47.3203" x="177.9138" y="344.9102">controls</text><polygon fill="#F1F1F1" points="121.4661,377.4414,233.9045,377.4414,245.9045,389.4414,233.9045,401.4414,121.4661,401.4414,109.4661,389.4414,121.4661,377.4414" style="stroke:#181818;stroke-width:0.5;"/><text fill="#000000" font-family="sans-serif" font-size="11" lengthAdjust="spacing" textLength="46.2935" x="121.4661" y="393.5986">continue</text><text fill="#000000" font-family="sans-serif" font-size="11" lengthAdjust="spacing" textLength="3.4805" x="167.7595" y="393.5986">&#160;</text><text fill="#000000" font-family="sans-serif" font-size="11" lengthAdjust="spacing" textLength="62.6646" x="171.24" y="393.5986">processing?</text><text fill="#666666" font-family="sans-serif" font-size="12" lengthAdjust="spacing" textLength="14.8184" x="245.9045" y="386.9102">no</text><ellipse cx="282.7229" cy="389.4414" fill="none" rx="11" ry="11" style="stroke:#222222;stroke-width:1;"/><ellipse cx="282.7229" cy="389.4414" fill="#222222" rx="6" ry="6" style="stroke:#222222;stroke-width:1;"/><polygon fill="#F1F1F1" points="159.6921,445.875,195.6785,445.875,207.6785,457.875,195.6785,469.875,159.6921,469.875,147.6921,457.875,159.6921,445.875" style="stroke:#181818;stroke-width:0.5;"/><text fill="#000000" font-family="sans-serif" font-size="11" lengthAdjust="spacing" textLength="35.9863" x="159.6921" y="462.0322">isPost?</text><text fill="#666666" font-family="sans-serif" font-size="12" lengthAdjust="spacing" textLength="19.0723" x="128.6199" y="455.3438">yes</text><text fill="#666666" font-family="sans-serif" font-size="12" lengthAdjust="spacing" textLength="14.8184" x="207.6785" y="455.3438">no</text><rect fill="#F1F1F1" height="34.1328" rx="12.5" ry="12.5" style="stroke:#181818;stroke-width:0.5;" width="98.457" x="70.4192" y="479.875"/><text fill="#000000" font-family="sans-serif" font-size="12" lengthAdjust="spacing" textLength="78.457" x="80.4192" y="501.4766">Page.onPost()</text><rect fill="#F1F1F1" height="34.1328" rx="12.5" ry="12.5" style="stroke:#181818;stroke-width:0.5;" width="93.6934" x="188.8762" y="479.875"/><text fill="#000000" font-family="sans-serif" font-size="12" lengthAdjust="spacing" textLength="73.6934" x="198.8762" y="501.4766">Page.onGet()</text><polygon fill="#F1F1F1" points="177.6853,520.0078,189.6853,532.0078,177.6853,544.0078,165.6853,532.0078,177.6853,520.0078" style="stroke:#181818;stroke-width:0.5;"/><rect fill="#F1F1F1" height="34.1328" rx="12.5" ry="12.5" style="stroke:#181818;stroke-width:0.5;" width="114.7168" x="120.3269" y="564.0078"/><text fill="#000000" font-family="sans-serif" font-size="12" lengthAdjust="spacing" textLength="94.7168" x="130.3269" y="585.6094">Page.onRender()</text><polygon fill="#F1F1F1" points="149.4065,274.2422,205.9641,274.2422,217.9641,286.2422,205.9641,298.2422,149.4065,298.2422,137.4065,286.2422,149.4065,274.2422" style="stroke:#181818;stroke-width:0.5;"/><text fill="#666666" font-family="sans-serif" font-size="12" lengthAdjust="spacing" textLength="14.8184" x="181.6853" y="309.8438">no</text><text fill="#000000" font-family="sans-serif" font-size="11" lengthAdjust="spacing" textLength="56.5576" x="149.4065" y="290.3994">isForward?</text><polygon fill="#F1F1F1" points="177.6853,618.1406,189.6853,630.1406,177.6853,642.1406,165.6853,630.1406,177.6853,618.1406" style="stroke:#181818;stroke-width:0.5;"/><polygon fill="#F1F1F1" points="119.2397,171.043,236.1309,171.043,248.1309,183.043,236.1309,195.043,119.2397,195.043,107.2397,183.043,119.2397,171.043" style="stroke:#181818;stroke-width:0.5;"/><text fill="#666666" font-family="sans-serif" font-size="12" lengthAdjust="spacing" textLength="23.5313" x="181.6853" y="206.6445">true</text><text fill="#000000" font-family="sans-serif" font-size="11" lengthAdjust="spacing" textLength="116.8911" x="119.2397" y="187.2002">Page.onSecurityCheck</text><text fill="#666666" font-family="sans-serif" font-size="12" lengthAdjust="spacing" textLength="27.3105" x="248.1309" y="180.5117">false</text><polygon fill="#F1F1F1" points="177.6853,662.1406,189.6853,674.1406,177.6853,686.1406,165.6853,674.1406,177.6853,662.1406" style="stroke:#181818;stroke-width:0.5;"/><polygon fill="#F1F1F1" points="146.2295,706.1406,209.1411,706.1406,221.1411,718.1406,209.1411,730.1406,146.2295,730.1406,134.2295,718.1406,146.2295,706.1406" style="stroke:#181818;stroke-width:0.5;"/><text fill="#000000" font-family="sans-serif" font-size="11" lengthAdjust="spacing" textLength="13.6802" x="146.2295" y="722.2979">do</text><text fill="#000000" font-family="sans-serif" font-size="11" lengthAdjust="spacing" textLength="3.4805" x="159.9097" y="722.2979">&#160;</text><text fill="#000000" font-family="sans-serif" font-size="11" lengthAdjust="spacing" textLength="45.751" x="163.3901" y="722.2979">redirect?</text><text fill="#666666" font-family="sans-serif" font-size="12" lengthAdjust="spacing" textLength="19.0723" x="115.1572" y="715.6094">yes</text><rect fill="#F1F1F1" height="34.1328" rx="12.5" ry="12.5" style="stroke:#181818;stroke-width:0.5;" width="113.5449" x="11" y="740.1406"/><text fill="#000000" font-family="sans-serif" font-size="12" lengthAdjust="spacing" textLength="44.8477" x="21" y="761.7422">redirect</text><text fill="#000000" font-family="sans-serif" font-size="12" lengthAdjust="spacing" textLength="3.7969" x="65.8477" y="761.7422">&#160;</text><text fill="#000000" font-family="sans-serif" font-size="12" lengthAdjust="spacing" textLength="44.9004" x="69.6445" y="761.7422">process</text><polygon fill="#F1F1F1" points="256.0591,740.1406,319.1372,740.1406,331.1372,752.1406,319.1372,764.1406,256.0591,764.1406,244.0591,752.1406,256.0591,740.1406" style="stroke:#181818;stroke-width:0.5;"/><text fill="#000000" font-family="sans-serif" font-size="11" lengthAdjust="spacing" textLength="13.6802" x="256.0591" y="756.2979">do</text><text fill="#000000" font-family="sans-serif" font-size="11" lengthAdjust="spacing" textLength="3.4805" x="269.7393" y="756.2979">&#160;</text><text fill="#000000" font-family="sans-serif" font-size="11" lengthAdjust="spacing" textLength="45.9175" x="273.2197" y="756.2979">forward?</text><text fill="#666666" font-family="sans-serif" font-size="12" lengthAdjust="spacing" textLength="19.0723" x="224.9868" y="749.6094">yes</text><text fill="#666666" font-family="sans-serif" font-size="12" lengthAdjust="spacing" textLength="14.8184" x="331.1372" y="749.6094">no</text><rect fill="#F1F1F1" height="34.1328" rx="12.5" ry="12.5" style="stroke:#181818;stroke-width:0.5;" width="114.7344" x="154.5449" y="774.1406"/><text fill="#000000" font-family="sans-serif" font-size="12" lengthAdjust="spacing" textLength="47.0508" x="164.5449" y="795.7422">Forward</text><text fill="#000000" font-family="sans-serif" font-size="12" lengthAdjust="spacing" textLength="3.7969" x="211.5957" y="795.7422">&#160;</text><text fill="#000000" font-family="sans-serif" font-size="12" lengthAdjust="spacing" textLength="43.8867" x="215.3926" y="795.7422">request</text><rect fill="#F1F1F1" height="34.1328" rx="12.5" ry="12.5" style="stroke:#181818;stroke-width:0.5;" width="148.0098" x="289.2793" y="774.1406"/><text fill="#000000" font-family="sans-serif" font-size="12" lengthAdjust="spacing" textLength="40.8691" x="299.2793" y="795.7422">Render</text><text fill="#000000" font-family="sans-serif" font-size="12" lengthAdjust="spacing" textLength="3.7969" x="340.1484" y="795.7422">&#160;</text><text fill="#000000" font-family="sans-serif" font-size="12" lengthAdjust="spacing" textLength="28.3477" x="343.9453" y="795.7422">page</text><text fill="#000000" font-family="sans-serif" font-size="12" lengthAdjust="spacing" textLength="3.7969" x="372.293" y="795.7422">&#160;</text><text fill="#000000" font-family="sans-serif" font-size="12" lengthAdjust="spacing" textLength="51.1992" x="376.0898" y="795.7422">template</text><polygon fill="#F1F1F1" points="287.5981,814.2734,299.5981,826.2734,287.5981,838.2734,275.5981,826.2734,287.5981,814.2734" style="stroke:#181818;stroke-width:0.5;"/><polygon fill="#F1F1F1" points="177.6853,844.2734,189.6853,856.2734,177.6853,868.2734,165.6853,856.2734,177.6853,844.2734" style="stroke:#181818;stroke-width:0.5;"/><ellipse cx="177.6853" cy="899.2734" fill="none" rx="11" ry="11" style="stroke:#222222;stroke-width:1;"/><ellipse cx="177.6853" cy="899.2734" fill="#222222" rx="6" ry="6" style="stroke:#222222;stroke-width:1;"/><line style="stroke:#666666;stroke-width:1;" x1="177.6853" x2="177.6853" y1="42.7773" y2="62.7773"/><polygon fill="#666666" points="173.6853,52.7773,177.6853,62.7773,181.6853,52.7773,177.6853,56.7773" style="stroke:#666666;stroke-width:1;"/><line style="stroke:#666666;stroke-width:1;" x1="177.6853" x2="177.6853" y1="96.9102" y2="116.9102"/><polygon fill="#666666" points="173.6853,106.9102,177.6853,116.9102,181.6853,106.9102,177.6853,110.9102" style="stroke:#666666;stroke-width:1;"/><line style="stroke:#666666;stroke-width:1;" x1="177.6853" x2="177.6853" y1="401.4414" y2="445.875"/><polygon fill="#666666" points="173.6853,435.875,177.6853,445.875,181.6853,435.875,177.6853,439.875" style="stroke:#666666;stroke-width:1;"/><line style="stroke:#666666;stroke-width:1;" x1="245.9045" x2="271.7229" y1="389.4414" y2="389.4414"/><polygon fill="#666666" points="261.7229,385.4414,271.7229,389.4414,261.7229,393.4414,265.7229,389.4414" style="stroke:#666666;stroke-width:1;"/><line style="stroke:#666666;stroke-width:1;" x1="177.6853" x2="177.6853" y1="357.4414" y2="377.4414"/><polygon fill="#666666" points="173.6853,367.4414,177.6853,377.4414,181.6853,367.4414,177.6853,371.4414" style="stroke:#666666;stroke-width:1;"/><line style="stroke:#666666;stroke-width:1;" x1="147.6921" x2="119.6477" y1="457.875" y2="457.875"/><line style="stroke:#666666;stroke-width:1;" x1="119.6477" x2="119.6477" y1="457.875" y2="479.875"/><polygon fill="#666666" points="115.6477,469.875,119.6477,479.875,123.6477,469.875,119.6477,473.875" style="stroke:#666666;stroke-width:1;"/><line style="stroke:#666666;stroke-width:1;" x1="207.6785" x2="235.7229" y1="457.875" y2="457.875"/><line style="stroke:#666666;stroke-width:1;" x1="235.7229" x2="235.7229" y1="457.875" y2="479.875"/><polygon fill="#666666" points="231.7229,469.875,235.7229,479.875,239.7229,469.875,235.7229,473.875" style="stroke:#666666;stroke-width:1;"/><line style="stroke:#666666;stroke-width:1;" x1="119.6477" x2="119.6477" y1="514.0078" y2="532.0078"/><line style="stroke:#666666;stroke-width:1;" x1="119.6477" x2="165.6853" y1="532.0078" y2="532.0078"/><polygon fill="#666666" points="155.6853,528.0078,165.6853,532.0078,155.6853,536.0078,159.6853,532.0078" style="stroke:#666666;stroke-width:1;"/><line style="stroke:#666666;stroke-width:1;" x1="235.7229" x2="235.7229" y1="514.0078" y2="532.0078"/><line style="stroke:#666666;stroke-width:1;" x1="235.7229" x2="189.6853" y1="532.0078" y2="532.0078"/><polygon fill="#666666" points="199.6853,528.0078,189.6853,532.0078,199.6853,536.0078,195.6853,532.0078" style="stroke:#666666;stroke-width:1;"/><line style="stroke:#666666;stroke-width:1;" x1="177.6853" x2="177.6853" y1="544.0078" y2="564.0078"/><polygon fill="#666666" points="173.6853,554.0078,177.6853,564.0078,181.6853,554.0078,177.6853,558.0078" style="stroke:#666666;stroke-width:1;"/><line style="stroke:#666666;stroke-width:1;" x1="177.6853" x2="177.6853" y1="298.2422" y2="323.3086"/><polygon fill="#666666" points="173.6853,313.3086,177.6853,323.3086,181.6853,313.3086,177.6853,317.3086" style="stroke:#666666;stroke-width:1;"/><line style="stroke:#666666;stroke-width:1;" x1="217.9641" x2="315.7229" y1="286.2422" y2="286.2422"/><polygon fill="#666666" points="311.7229,431.4414,315.7229,441.4414,319.7229,431.4414,315.7229,435.4414" style="stroke:#666666;stroke-width:1;"/><line style="stroke:#666666;stroke-width:1;" x1="315.7229" x2="315.7229" y1="286.2422" y2="630.1406"/><line style="stroke:#666666;stroke-width:1;" x1="315.7229" x2="189.6853" y1="630.1406" y2="630.1406"/><polygon fill="#666666" points="199.6853,626.1406,189.6853,630.1406,199.6853,634.1406,195.6853,630.1406" style="stroke:#666666;stroke-width:1;"/><line style="stroke:#666666;stroke-width:1;" x1="177.6853" x2="177.6853" y1="598.1406" y2="618.1406"/><polygon fill="#666666" points="173.6853,608.1406,177.6853,618.1406,181.6853,608.1406,177.6853,612.1406" style="stroke:#666666;stroke-width:1;"/><line style="stroke:#666666;stroke-width:1;" x1="177.6853" x2="177.6853" y1="254.2422" y2="274.2422"/><polygon fill="#666666" points="173.6853,264.2422,177.6853,274.2422,181.6853,264.2422,177.6853,268.2422" style="stroke:#666666;stroke-width:1;"/><line style="stroke:#666666;stroke-width:1;" x1="177.6853" x2="177.6853" y1="195.043" y2="220.1094"/><polygon fill="#666666" points="173.6853,210.1094,177.6853,220.1094,181.6853,210.1094,177.6853,214.1094" style="stroke:#666666;stroke-width:1;"/><line style="stroke:#666666;stroke-width:1;" x1="248.1309" x2="337.7229" y1="183.043" y2="183.043"/><polygon fill="#666666" points="333.7229,411.4414,337.7229,421.4414,341.7229,411.4414,337.7229,415.4414" style="stroke:#666666;stroke-width:1;"/><line style="stroke:#666666;stroke-width:1;" x1="337.7229" x2="337.7229" y1="183.043" y2="674.1406"/><line style="stroke:#666666;stroke-width:1;" x1="337.7229" x2="189.6853" y1="674.1406" y2="674.1406"/><polygon fill="#666666" points="199.6853,670.1406,189.6853,674.1406,199.6853,678.1406,195.6853,674.1406" style="stroke:#666666;stroke-width:1;"/><line style="stroke:#666666;stroke-width:1;" x1="177.6853" x2="177.6853" y1="642.1406" y2="662.1406"/><polygon fill="#666666" points="173.6853,652.1406,177.6853,662.1406,181.6853,652.1406,177.6853,656.1406" style="stroke:#666666;stroke-width:1;"/><line style="stroke:#666666;stroke-width:1;" x1="177.6853" x2="177.6853" y1="151.043" y2="171.043"/><polygon fill="#666666" points="173.6853,161.043,177.6853,171.043,181.6853,161.043,177.6853,165.043" style="stroke:#666666;stroke-width:1;"/><line style="stroke:#666666;stroke-width:1;" x1="244.0591" x2="211.9121" y1="752.1406" y2="752.1406"/><line style="stroke:#666666;stroke-width:1;" x1="211.9121" x2="211.9121" y1="752.1406" y2="774.1406"/><polygon fill="#666666" points="207.9121,764.1406,211.9121,774.1406,215.9121,764.1406,211.9121,768.1406" style="stroke:#666666;stroke-width:1;"/><line style="stroke:#666666;stroke-width:1;" x1="331.1372" x2="363.2842" y1="752.1406" y2="752.1406"/><line style="stroke:#666666;stroke-width:1;" x1="363.2842" x2="363.2842" y1="752.1406" y2="774.1406"/><polygon fill="#666666" points="359.2842,764.1406,363.2842,774.1406,367.2842,764.1406,363.2842,768.1406" style="stroke:#666666;stroke-width:1;"/><line style="stroke:#666666;stroke-width:1;" x1="211.9121" x2="211.9121" y1="808.2734" y2="826.2734"/><line style="stroke:#666666;stroke-width:1;" x1="211.9121" x2="275.5981" y1="826.2734" y2="826.2734"/><polygon fill="#666666" points="265.5981,822.2734,275.5981,826.2734,265.5981,830.2734,269.5981,826.2734" style="stroke:#666666;stroke-width:1;"/><line style="stroke:#666666;stroke-width:1;" x1="363.2842" x2="363.2842" y1="808.2734" y2="826.2734"/><line style="stroke:#666666;stroke-width:1;" x1="363.2842" x2="299.5981" y1="826.2734" y2="826.2734"/><polygon fill="#666666" points="309.5981,822.2734,299.5981,826.2734,309.5981,830.2734,305.5981,826.2734" style="stroke:#666666;stroke-width:1;"/><line style="stroke:#666666;stroke-width:1;" x1="134.2295" x2="67.7725" y1="718.1406" y2="718.1406"/><line style="stroke:#666666;stroke-width:1;" x1="67.7725" x2="67.7725" y1="718.1406" y2="740.1406"/><polygon fill="#666666" points="63.7725,730.1406,67.7725,740.1406,71.7725,730.1406,67.7725,734.1406" style="stroke:#666666;stroke-width:1;"/><line style="stroke:#666666;stroke-width:1;" x1="221.1411" x2="287.5981" y1="718.1406" y2="718.1406"/><line style="stroke:#666666;stroke-width:1;" x1="287.5981" x2="287.5981" y1="718.1406" y2="740.1406"/><polygon fill="#666666" points="283.5981,730.1406,287.5981,740.1406,291.5981,730.1406,287.5981,734.1406" style="stroke:#666666;stroke-width:1;"/><line style="stroke:#666666;stroke-width:1;" x1="67.7725" x2="67.7725" y1="774.2734" y2="856.2734"/><line style="stroke:#666666;stroke-width:1;" x1="67.7725" x2="165.6853" y1="856.2734" y2="856.2734"/><polygon fill="#666666" points="155.6853,852.2734,165.6853,856.2734,155.6853,860.2734,159.6853,856.2734" style="stroke:#666666;stroke-width:1;"/><line style="stroke:#666666;stroke-width:1;" x1="287.5981" x2="287.5981" y1="838.2734" y2="856.2734"/><line style="stroke:#666666;stroke-width:1;" x1="287.5981" x2="189.6853" y1="856.2734" y2="856.2734"/><polygon fill="#666666" points="199.6853,852.2734,189.6853,856.2734,199.6853,860.2734,195.6853,856.2734" style="stroke:#666666;stroke-width:1;"/><line style="stroke:#666666;stroke-width:1;" x1="177.6853" x2="177.6853" y1="686.1406" y2="706.1406"/><polygon fill="#666666" points="173.6853,696.1406,177.6853,706.1406,181.6853,696.1406,177.6853,700.1406" style="stroke:#666666;stroke-width:1;"/><line style="stroke:#666666;stroke-width:1;" x1="177.6853" x2="177.6853" y1="868.2734" y2="888.2734"/><polygon fill="#666666" points="173.6853,878.2734,177.6853,888.2734,181.6853,878.2734,177.6853,882.2734" style="stroke:#666666;stroke-width:1;"/><text fill="#888888" font-family="sans-serif" font-size="10" font-weight="bold" lengthAdjust="spacing" textLength="223.9795" x="211.3096" y="918.9414">Copyright &#169; Yui Semba. All rights reserved.</text><!--SRC=[dL6zRiCW4DvvYkiKUwYzuw53f5RPekG943x7A0HSE1hvxMl0TfrcQhqOVNzyTzGxUFtJ1xkQlIWZTMWHgghMOhI1gY7Sz0FkQTIOuVe_Tp1FmX7ZUwtazOpkIoDLlJ2jnXD-1lHKb0tZ1kymY0isJ7LG7ATJPSqPPN2AndsFybe2zMYW81UmP01y5XsCIX40qQdyktLtuTgtHMziL4UzinAz1saDEQjza-1eYeWo0M784cKkJtO0JtP8HpIjwjZgLlveFQs64VtYM2f6FbUSpDhZDdNHVE2F9ELloTC4eSjyPdDC9wPVoUP2iKnhmM6h7CgdHdmXbZ6Rb38lRZ9slpQtJiBddKxHwSLIZOSvU6wOdX08RuCMX9kskM3Qu3S0]--></g></svg>